<svg width="21" height="22" viewBox="0 0 21 22" fill="none" xmlns="http://www.w3.org/2000/svg">
<path d="M19.4132 4.89734L11.5879 0.777339C10.9066 0.415999 10.0932 0.417339 9.41317 0.777339L1.58655 4.89734C0.927885 5.244 0.518555 5.92267 0.518555 6.66667C0.518555 7.41067 0.927885 8.08934 1.58655 8.436L9.41187 12.556C9.75187 12.736 10.1266 12.8267 10.4999 12.8267C10.8732 12.8267 11.2466 12.7373 11.5866 12.5573L19.4132 8.436C20.0719 8.08934 20.4812 7.41067 20.4812 6.66667C20.4812 5.92267 20.0719 5.244 19.4132 4.89734Z" fill="#54595D"/>
<path d="M19.4812 10C18.9292 10 18.4812 10.448 18.4812 11L10.6546 15.1213C10.5586 15.172 10.4439 15.172 10.3452 15.1213L2.51855 11C2.51855 10.448 2.07055 10 1.51855 10C0.966555 10 0.518555 10.448 0.518555 11C0.518555 11.7453 0.927885 12.4227 1.58655 12.7693L9.41187 16.8893C9.75187 17.0693 10.1266 17.16 10.4999 17.16C10.8732 17.16 11.2466 17.0707 11.5866 16.8907L19.4132 12.7693C20.0719 12.4227 20.4812 11.744 20.4812 11C20.4812 10.448 20.0332 10 19.4812 10Z" fill="#54595D"/>
<path d="M19.4812 14.3333C18.9292 14.3333 18.4812 14.7813 18.4812 15.3333L10.6546 19.4546C10.5586 19.5053 10.4439 19.5053 10.3452 19.4546L2.51855 15.3333C2.51855 14.7813 2.07055 14.3333 1.51855 14.3333C0.966555 14.3333 0.518555 14.7813 0.518555 15.3333C0.518555 16.0786 0.927885 16.756 1.58655 17.1026L9.41187 21.2226C9.75187 21.4026 10.1266 21.4933 10.4999 21.4933C10.8732 21.4933 11.2466 21.404 11.5866 21.224L19.4132 17.1026C20.0719 16.756 20.4812 16.0773 20.4812 15.3333C20.4812 14.7813 20.0332 14.3333 19.4812 14.3333Z" fill="#54595D"/>
</svg>
