<svg width="23" height="24" viewBox="0 0 23 24" fill="none" xmlns="http://www.w3.org/2000/svg">
<path d="M6.16669 4.66667C5.61469 4.66667 5.16669 4.21867 5.16669 3.66667V1C5.16669 0.448 5.61469 0 6.16669 0C6.71869 0 7.16669 0.448 7.16669 1V3.66667C7.16669 4.21867 6.71869 4.66667 6.16669 4.66667Z" fill="#FF62E6"/>
<path d="M14.8333 4.66667C14.2813 4.66667 13.8333 4.21867 13.8333 3.66667V1C13.8333 0.448 14.2813 0 14.8333 0C15.3853 0 15.8333 0.448 15.8333 1V3.66667C15.8333 4.21867 15.3853 4.66667 14.8333 4.66667Z" fill="#FF62E6"/>
<path d="M18.1666 24C15.7773 24 13.8333 22.056 13.8333 19.6667V16.3333C13.8333 14.8627 15.0293 13.6667 16.5 13.6667C17.9706 13.6667 19.1666 14.8627 19.1666 16.3333V19C19.1666 19.552 18.7186 20 18.1666 20C17.6146 20 17.1666 19.552 17.1666 19V16.3333C17.1666 15.9653 16.8666 15.6667 16.5 15.6667C16.1333 15.6667 15.8333 15.9653 15.8333 16.3333V19.6667C15.8333 20.9533 16.88 22 18.1666 22C19.4533 22 20.5 20.9533 20.5 19.6667V17C20.5 16.448 20.948 16 21.5 16C22.052 16 22.5 16.448 22.5 17V19.6667C22.5 22.056 20.556 24 18.1666 24Z" fill="#FF62E6"/>
<path d="M16.8333 2.66667H4.16667C2.144 2.66667 0.5 4.31067 0.5 6.33334V17.6667C0.5 19.6893 2.144 21.3333 4.16667 21.3333H11.568C12.12 21.3333 12.568 20.8853 12.568 20.3333C12.568 19.7813 12.12 19.3333 11.568 19.3333H4.16667C3.248 19.3333 2.5 18.5853 2.5 17.6667V9.33334H18.5V12.3373C18.5 12.8893 18.948 13.3373 19.5 13.3373C20.052 13.3373 20.5 12.8893 20.5 12.3373V6.33334C20.5 4.31067 18.856 2.66667 16.8333 2.66667Z" fill="#FF62E6"/>
</svg>
