<svg width="20" height="22" viewBox="0 0 20 22" fill="none" xmlns="http://www.w3.org/2000/svg">
<path d="M19.2305 16.4254C19.2385 16.408 19.2505 16.3947 19.2572 16.3774C19.3025 16.2667 19.3225 16.152 19.3265 16.0334C19.3265 16.0214 19.3332 16.012 19.3332 16V1.33337C19.3332 0.781374 18.8852 0.333374 18.3332 0.333374H4.33317C2.3105 0.333374 0.666504 1.97737 0.666504 4.00004V18.3334C0.666504 20.1707 2.16117 21.6667 3.99984 21.6667H18.3332C18.7145 21.6667 19.0625 21.4494 19.2305 21.108C19.3985 20.7667 19.3585 20.3587 19.1252 20.056C18.4292 19.1507 18.5465 17.372 19.1305 16.604C19.1732 16.548 19.2012 16.4867 19.2305 16.424V16.4254ZM9.6665 5.00004H14.3332C14.8852 5.00004 15.3332 5.44804 15.3332 6.00004C15.3332 6.55204 14.8852 7.00004 14.3332 7.00004H9.6665C9.1145 7.00004 8.6665 6.55204 8.6665 6.00004C8.6665 5.44804 9.1145 5.00004 9.6665 5.00004ZM9.6665 9.00004H14.3332C14.8852 9.00004 15.3332 9.44804 15.3332 10C15.3332 10.552 14.8852 11 14.3332 11H9.6665C9.1145 11 8.6665 10.552 8.6665 10C8.6665 9.44804 9.1145 9.00004 9.6665 9.00004ZM2.6665 4.00004C2.6665 3.08137 3.4145 2.33337 4.33317 2.33337H4.6665V15H3.99984C3.52517 15 3.07584 15.1027 2.6665 15.2827V4.00004ZM16.7892 19.6667H3.99984C3.26384 19.6667 2.6665 19.068 2.6665 18.3334C2.6665 17.5987 3.26384 17 3.99984 17H16.8065C16.5998 17.8387 16.5745 18.7854 16.7878 19.6667H16.7892Z" fill="#46DE83"/>
</svg>
