<svg width="14" height="18" viewBox="0 0 14 18" fill="none" xmlns="http://www.w3.org/2000/svg">
<path d="M0 16.6499C0 16.1803 0.380618 15.7997 0.850124 15.7997H12.7519C13.2214 15.7997 13.602 16.1803 13.602 16.6499C13.602 17.1194 13.2214 17.5 12.7519 17.5H0.850124C0.380618 17.5 0 17.1194 0 16.6499Z" fill="#969EA7"/>
<path fill-rule="evenodd" clip-rule="evenodd" d="M7.15122 1.49597C8.4792 0.168003 10.6323 0.168012 11.9603 1.49598L12.6041 2.13983C13.9321 3.4678 13.9321 5.62089 12.6041 6.94887L6.73304 12.8199C6.49722 13.0557 6.19721 13.217 5.87034 13.2836L2.04178 14.064C0.847726 14.3074 -0.207134 13.2525 0.0362055 12.0584L0.81645 8.22973C0.883057 7.90286 1.04433 7.60285 1.2802 7.36694L7.15122 1.49597ZM10.758 2.69825C10.094 2.03426 9.0175 2.03426 8.35347 2.69824L8.00355 3.04819L11.0519 6.09655L11.4018 5.74661C12.0659 5.08262 12.0659 4.00608 11.4018 3.34209L10.758 2.69825ZM3.75291 7.29876L6.80131 4.25045L9.84969 7.29876L6.80131 10.3471L3.75291 7.29876ZM2.55064 8.50109L2.48246 8.56927L1.70221 12.398L5.5308 11.6176L5.59898 11.5494L2.55064 8.50109Z" fill="#969EA7"/>
</svg>
