<svg width="23" height="22" viewBox="0 0 23 22" fill="none" xmlns="http://www.w3.org/2000/svg">
<path d="M11.5001 12.9999C13.5252 12.9999 15.1668 11.3583 15.1668 9.33324H13.1668C13.1668 10.2538 12.4206 10.9999 11.5001 10.9999V12.9999ZM15.1668 9.33324C15.1668 7.3082 13.5252 5.6666 11.5001 5.6666V7.6666C12.4207 7.6666 13.1668 8.4128 13.1668 9.33324H15.1668ZM11.5001 5.6666C9.47515 5.6666 7.8335 7.30821 7.8335 9.33324H9.8335C9.8335 8.41279 10.5797 7.6666 11.5001 7.6666V5.6666ZM7.8335 9.33324C7.8335 11.3583 9.47513 12.9999 11.5001 12.9999V10.9999C10.5797 10.9999 9.8335 10.2538 9.8335 9.33324H7.8335ZM7.33351 19.4712C7.85264 17.658 9.52229 16.3332 11.5001 16.3332V14.3332C8.60598 14.3332 6.16897 16.2725 5.41076 18.9207L7.33351 19.4712ZM11.5001 16.3332C13.478 16.3332 15.1476 17.658 15.6668 19.4712L17.5895 18.9207C16.8313 16.2725 14.3943 14.3332 11.5001 14.3332V16.3332ZM11.5001 21.6665C17.3912 21.6665 22.1668 16.8909 22.1668 10.9999H20.1668C20.1668 15.7864 16.2866 19.6665 11.5001 19.6665V21.6665ZM22.1668 10.9999C22.1668 5.10889 17.3912 0.333252 11.5001 0.333252V2.33325C16.2866 2.33325 20.1668 6.21346 20.1668 10.9999H22.1668ZM11.5001 0.333252C5.60913 0.333252 0.833496 5.10889 0.833496 10.9999H2.8335C2.8335 6.21345 6.7137 2.33325 11.5001 2.33325V0.333252ZM0.833496 10.9999C0.833496 16.8909 5.60913 21.6665 11.5001 21.6665V19.6665C6.7137 19.6665 2.8335 15.7864 2.8335 10.9999H0.833496Z" fill="#0374FA"/>
</svg>
