<svg width="20" height="22" viewBox="0 0 20 22" fill="none" xmlns="http://www.w3.org/2000/svg">
<path d="M5.66663 4.66667C5.11463 4.66667 4.66663 4.21867 4.66663 3.66667V1C4.66663 0.448 5.11463 0 5.66663 0C6.21863 0 6.66663 0.448 6.66663 1V3.66667C6.66663 4.21867 6.21863 4.66667 5.66663 4.66667Z" fill="white"/>
<path d="M14.3333 4.66667C13.7813 4.66667 13.3333 4.21867 13.3333 3.66667V1C13.3333 0.448 13.7813 0 14.3333 0C14.8853 0 15.3333 0.448 15.3333 1V3.66667C15.3333 4.21867 14.8853 4.66667 14.3333 4.66667Z" fill="white"/>
<path d="M16.3333 2.66669H3.66667C1.644 2.66669 0 4.31069 0 6.33335V17.6667C0 19.6894 1.644 21.3334 3.66667 21.3334H16.3333C18.356 21.3334 20 19.6894 20 17.6667V6.33335C20 4.31069 18.356 2.66669 16.3333 2.66669ZM16.3333 19.3334H3.66667C2.748 19.3334 2 18.5854 2 17.6667V9.33335H18V17.6667C18 18.5854 17.252 19.3334 16.3333 19.3334Z" fill="white"/>
<path d="M8.94 17.6667C8.688 17.6667 8.444 17.5721 8.2586 17.3974L6.35198 15.6201C5.94798 15.2441 5.92531 14.6107 6.30265 14.2067C6.67998 13.8027 7.31198 13.7814 7.71598 14.1574L8.812 15.1787L12.1706 10.7307C12.504 10.2921 13.1293 10.2041 13.572 10.5361C14.0133 10.8694 14.1 11.4961 13.7666 11.9374L9.74 17.2707C9.5693 17.4961 9.3106 17.6387 9.028 17.6641C9 17.6667 8.9706 17.6681 8.9413 17.6681L8.94 17.6667Z" fill="white"/>
</svg>
