<svg width="21" height="22" viewBox="0 0 21 22" fill="none" xmlns="http://www.w3.org/2000/svg">
<path d="M6.16663 4.66667C5.61463 4.66667 5.16663 4.21867 5.16663 3.66667V1C5.16663 0.448 5.61463 0 6.16663 0C6.71863 0 7.16663 0.448 7.16663 1V3.66667C7.16663 4.21867 6.71863 4.66667 6.16663 4.66667Z" fill="#FF62E6"/>
<path d="M14.8333 4.66667C14.2813 4.66667 13.8333 4.21867 13.8333 3.66667V1C13.8333 0.448 14.2813 0 14.8333 0C15.3853 0 15.8333 0.448 15.8333 1V3.66667C15.8333 4.21867 15.3853 4.66667 14.8333 4.66667Z" fill="#FF62E6"/>
<path d="M16.8333 2.66669H4.16667C2.144 2.66669 0.5 4.31069 0.5 6.33335V17.6667C0.5 19.6894 2.144 21.3334 4.16667 21.3334H16.8333C18.856 21.3334 20.5 19.6894 20.5 17.6667V6.33335C20.5 4.31069 18.856 2.66669 16.8333 2.66669ZM16.8333 19.3334H4.16667C3.248 19.3334 2.5 18.5854 2.5 17.6667V9.33335H18.5V17.6667C18.5 18.5854 17.752 19.3334 16.8333 19.3334Z" fill="#FF62E6"/>
<path d="M9.44 17.6667C9.188 17.6667 8.944 17.5721 8.7586 17.3974L6.85198 15.6201C6.44798 15.2441 6.42531 14.6107 6.80265 14.2067C7.17998 13.8027 7.81198 13.7814 8.21598 14.1574L9.312 15.1787L12.6706 10.7307C13.004 10.2921 13.6293 10.2041 14.072 10.5361C14.5133 10.8694 14.6 11.4961 14.2666 11.9374L10.24 17.2707C10.0693 17.4961 9.8106 17.6387 9.528 17.6641C9.5 17.6667 9.4706 17.6681 9.4413 17.6681L9.44 17.6667Z" fill="#FF62E6"/>
</svg>
