<svg width="19" height="19" viewBox="0 0 19 19" fill="none" xmlns="http://www.w3.org/2000/svg">
<path d="M18.5478 3.01503C18.4189 2.70391 18.1145 2.50058 17.7778 2.50058H16.1112V0.833908C16.1112 0.497245 15.9078 0.192801 15.5967 0.0639125C15.2856 -0.0660875 14.9267 0.00613445 14.6889 0.245023L11.9112 3.0228C11.7545 3.17947 11.6667 3.39169 11.6667 3.61169V5.76614L8.30008 9.1328C7.97452 9.45836 7.97452 9.98618 8.30008 10.3117C8.4623 10.4739 8.67563 10.5562 8.88892 10.5562C9.10232 10.5562 9.31562 10.475 9.47782 10.3117L12.8445 6.94503H14.9989C15.2201 6.94503 15.4323 6.85725 15.5878 6.70058L18.3656 3.9228C18.6045 3.68503 18.6745 3.32614 18.5467 3.01503H18.5478Z" fill="#969EA7"/>
<path d="M8.88889 18.6117C3.98778 18.6117 0 14.6239 0 9.72278C0 4.28056 4.88556 -0.0805494 10.5544 0.995009C11.0067 1.08056 11.3044 1.51723 11.2189 1.96834C11.1333 2.42167 10.6889 2.71723 10.2444 2.63167C9.78222 2.5439 9.32672 2.49945 8.88889 2.49945C4.90667 2.49945 1.66667 5.73945 1.66667 9.72167C1.66667 13.7039 4.90667 16.9439 8.88889 16.9439C12.8711 16.9439 16.1111 13.7039 16.1111 9.72167C16.1111 9.28167 16.0667 8.82501 15.98 8.36612C15.8933 7.9139 16.19 7.47834 16.6422 7.39168C17.0955 7.30501 17.53 7.60168 17.6167 8.05501C17.7244 8.61612 17.7789 9.17723 17.7789 9.72167C17.7789 14.6228 13.7911 18.6106 8.89002 18.6106L8.88889 18.6117Z" fill="#969EA7"/>
<path d="M8.88881 15.2784C5.82548 15.2784 3.33326 12.7861 3.33326 9.72278C3.33326 6.65946 5.82548 4.16724 8.88881 4.16724C9.17992 4.16724 9.45882 4.20724 9.73772 4.24946C10.1921 4.31946 10.5043 4.74502 10.4343 5.19946C10.3655 5.65502 9.94772 5.96946 9.48432 5.89613C9.28882 5.86613 9.09322 5.83279 8.88992 5.83279C6.74548 5.83279 5.00103 7.57724 5.00103 9.72168C5.00103 11.8661 6.74548 13.6106 8.88992 13.6106C11.0343 13.6106 12.7788 11.8661 12.7788 9.72168C12.7788 9.51835 12.7466 9.3239 12.7155 9.12835C12.6455 8.6739 12.9566 8.24835 13.411 8.17724C13.8732 8.11279 14.2921 8.41835 14.3621 8.87279C14.4055 9.15168 14.4443 9.43168 14.4443 9.72278C14.4443 12.7861 11.9521 15.2784 8.88881 15.2784Z" fill="#969EA7"/>
</svg>
