<svg width="22" height="20" viewBox="0 0 22 20" fill="none" xmlns="http://www.w3.org/2000/svg">
<path d="M9.68154 10H3.82421M3.82421 10L1.5296 2.25736C1.3576 1.67469 1.96826 1.17069 2.50693 1.45069L17.7949 9.3894C18.1616 9.5787 18.2536 10.0147 18.0776 10.3334M3.82421 10L1.5296 17.7427C1.3576 18.3254 1.96826 18.8294 2.50693 18.5494L8.17226 15.608M14.1669 19.0001H13.5002C12.3962 19.0001 11.5002 18.1041 11.5002 17.0001V15.6667C11.5002 14.5627 12.3962 13.6667 13.5002 13.6667H14.1669M17.5002 19.0001H18.1669C19.2709 19.0001 20.1669 18.1041 20.1669 17.0001V15.6667C20.1669 14.5627 19.2709 13.6667 18.1669 13.6667H17.5002M14.8335 16.3333H16.8335" stroke="#969EA7" stroke-width="2" stroke-linecap="round" stroke-linejoin="round"/>
</svg>
