<svg width="20" height="20" viewBox="0 0 20 20" fill="none" xmlns="http://www.w3.org/2000/svg">
<path d="M5.82 17.5133L4.24334 18.0383L3.71667 19.6166C3.54667 20.1266 2.70167 20.1266 2.53167 19.6166L2.005 18.0383L0.42834 17.5133C0.17334 17.4283 0 17.19 0 16.92C0 16.65 0.17334 16.4116 0.42834 16.3266L2.005 15.8016L2.53167 14.2233C2.61667 13.9683 2.855 13.7966 3.12334 13.7966C3.39167 13.7966 3.63167 13.97 3.715 14.2233L4.24167 15.8016L5.81834 16.3266C6.07334 16.4116 6.24667 16.65 6.24667 16.92C6.24667 17.19 6.07334 17.4283 5.81834 17.5133H5.82Z" fill="white"/>
<path d="M19.2099 8.00501L14.0399 5.96L11.9949 0.79C11.8065 0.31333 11.3449 0 10.8332 0C10.3215 0 9.85986 0.31333 9.67146 0.79L7.62651 5.96L2.45651 8.00501C1.97984 8.19331 1.66651 8.65501 1.66651 9.16671C1.66651 9.67831 1.97984 10.14 2.45651 10.3283L7.62651 12.3733L9.67146 17.5433C9.85986 18.02 10.3215 18.3333 10.8332 18.3333C11.3449 18.3333 11.8065 18.02 11.9949 17.5433L14.0399 12.3733L19.2099 10.3283C19.6865 10.14 19.9999 9.67831 19.9999 9.16671C19.9999 8.65501 19.6865 8.19331 19.2099 8.00501Z" fill="white"/>
</svg>
