<svg width="303" height="240" viewBox="0 0 303 240" fill="none" xmlns="http://www.w3.org/2000/svg">
<path d="M122.909 44.7385H18.7935V173.117H122.909V44.7385Z" fill="white"/>
<path d="M122.909 43.7806H18.7937C18.2749 43.7806 17.8359 44.2196 17.8359 44.7384V173.117C17.8359 173.636 18.2749 174.075 18.7937 174.075H122.909C123.428 174.075 123.867 173.636 123.867 173.117V44.7384C123.867 44.2196 123.428 43.7806 122.909 43.7806ZM121.951 172.179H19.7514V45.6961H121.951V172.179Z" fill="#FF62E6"/>
<path d="M131.848 35.7994H27.7327V164.178H131.848V35.7994Z" fill="#0374FA"/>
<path d="M53.4521 44.2595C52.9134 44.2595 52.4944 43.8405 52.4944 43.3018V28.9355C52.4944 28.3968 52.9134 27.9778 53.4521 27.9778C53.9909 27.9778 54.4099 28.3968 54.4099 28.9355V43.3018C54.4099 43.8405 53.9709 44.2595 53.4521 44.2595Z" fill="#201000"/>
<path d="M80.0298 44.2595C79.491 44.2595 79.072 43.8405 79.072 43.3018V28.9355C79.072 28.3968 79.491 27.9778 80.0298 27.9778C80.5685 27.9778 80.9875 28.3968 80.9875 28.9355V43.3018C80.9875 43.8405 80.5685 44.2595 80.0298 44.2595Z" fill="#201000"/>
<path d="M106.607 44.2595C106.068 44.2595 105.649 43.8405 105.649 43.3018V28.9355C105.649 28.3968 106.068 27.9778 106.607 27.9778C107.146 27.9778 107.565 28.3968 107.565 28.9355V43.3018C107.565 43.8405 107.146 44.2595 106.607 44.2595Z" fill="#201000"/>
<path d="M94.6353 81.1528H49.6011C49.0623 81.1528 48.6433 80.7338 48.6433 80.1951C48.6433 79.6563 49.0623 79.2373 49.6011 79.2373H94.6353C95.174 79.2373 95.593 79.6563 95.593 80.1951C95.593 80.7338 95.174 81.1528 94.6353 81.1528Z" fill="white"/>
<path d="M101.18 119.004H49.6011C49.0623 119.004 48.6433 118.585 48.6433 118.046C48.6433 117.508 49.0623 117.089 49.6011 117.089H101.18C101.719 117.089 102.138 117.508 102.138 118.046C102.138 118.585 101.719 119.004 101.18 119.004Z" fill="white"/>
<path d="M103.734 89.2939C103.555 89.2939 103.395 89.254 103.235 89.1542C102.776 88.8749 102.637 88.2962 102.916 87.8373L112.015 72.9922C112.294 72.5332 112.873 72.3936 113.332 72.6729C113.791 72.9522 113.93 73.5309 113.651 73.9898L104.552 88.8349C104.373 89.1342 104.073 89.2939 103.734 89.2939Z" fill="#0374FA"/>
<path d="M126.102 47.7713C125.343 47.7713 124.585 47.6915 123.867 47.5518C123.548 47.492 123.228 47.4122 122.909 47.3124C122.59 47.2126 122.271 47.1129 121.951 46.9932C121.093 46.654 120.275 46.215 119.517 45.6962C119.098 45.3969 118.699 45.0776 118.32 44.7384C117.981 44.4391 117.681 44.1199 117.382 43.7807C115.646 41.7654 114.589 39.1316 114.589 36.2783C114.589 36.1187 114.589 35.9591 114.609 35.7994H112.693C112.693 35.9591 112.693 36.1187 112.693 36.2783C112.693 39.0518 113.551 41.6457 114.988 43.7807C115.207 44.1199 115.447 44.4391 115.706 44.7384C115.985 45.0776 116.265 45.3969 116.564 45.6962C118.061 47.1927 119.896 48.35 121.951 49.0284C122.271 49.1281 122.59 49.2279 122.909 49.3077C123.228 49.3875 123.548 49.4474 123.867 49.5072C124.585 49.627 125.343 49.6868 126.102 49.6868C128.157 49.6868 130.112 49.2279 131.848 48.3899V46.215C130.152 47.2126 128.197 47.7713 126.102 47.7713Z" fill="white"/>
<path d="M160.82 54.3758C153.897 54.3758 147.771 54.3559 147.232 54.3559C146.713 54.3559 146.274 53.9368 146.274 53.3981L146.135 21.2935C146.135 20.7747 146.554 20.3358 147.093 20.3358C150.185 20.3158 158.705 19.8968 160.84 18.101C161.698 17.3827 163.155 14.6691 164.571 12.0552C167.884 5.92959 171.655 -1.0141 175.546 0.123226C176.344 0.362664 176.942 0.901399 177.262 1.71948C178.778 5.39086 174.109 15.0282 172.154 18.7994C175.167 18.8193 178.419 18.959 181.192 19.6374C185.482 20.6949 187.657 22.8698 187.677 26.0623C187.677 28.317 186.38 29.8135 184.924 30.7313C186.32 31.4497 187.597 32.6668 187.717 34.6422C187.777 35.5999 187.458 36.4579 186.839 37.1563C186.38 37.6551 185.782 38.0342 185.183 38.2936C186.58 39.0917 187.917 40.3687 187.917 42.364C187.917 44.2396 186.859 45.377 185.582 46.0554C186.46 46.8335 186.799 47.891 186.799 48.8488C186.799 51.303 184.565 53.9768 180.833 54.1962C178.599 54.3359 169.141 54.3758 160.82 54.3758ZM148.19 52.4404C153.278 52.4603 177.122 52.5202 180.714 52.3007C183.587 52.1211 184.884 50.1857 184.884 48.8687C184.884 47.6915 183.986 46.9532 182.449 46.8734C181.931 46.8535 181.552 46.4145 181.552 45.9157C181.552 45.3969 181.951 44.9779 182.469 44.9579C182.609 44.9579 186.021 44.7784 186.001 42.384C185.981 39.9098 181.691 39.0319 181.651 39.0319C181.172 38.952 180.833 38.5131 180.873 38.0142C180.913 37.5354 181.312 37.1363 181.791 37.1164C182.509 37.0964 184.565 36.817 185.422 35.8593C185.702 35.54 185.822 35.2008 185.802 34.7619C185.662 32.2677 182.05 31.8487 182.011 31.8487C181.532 31.8088 181.172 31.4098 181.153 30.9508C181.133 30.472 181.452 30.0529 181.911 29.9731C182.07 29.9332 185.762 29.1351 185.762 26.1022C185.762 23.8475 184.106 22.351 180.734 21.5329C177.681 20.7747 173.87 20.7348 170.557 20.7548C170.218 20.7548 169.899 20.5752 169.739 20.2959C169.56 19.9966 169.56 19.6374 169.719 19.3381C172.533 14.2301 176.583 5.13146 175.486 2.49765C175.346 2.15845 175.167 2.05868 174.987 2.01877C172.573 1.32041 168.622 8.64322 166.248 13.013C164.532 16.1656 163.195 18.6597 162.057 19.5975C159.424 21.8123 151.023 22.1914 148.05 22.2712L148.19 52.4404Z" fill="#0374FA"/>
<path d="M172.134 54.2359C172.094 54.2359 172.034 54.2359 171.994 54.216C170.438 53.9766 168.961 53.0587 168.123 51.8216C167.445 50.824 167.245 49.7066 167.525 48.5892C168.463 44.7782 174.209 44.858 179.277 44.9378C180.434 44.9577 181.532 44.9777 182.47 44.9378C183.008 44.9178 183.447 45.3368 183.467 45.8556C183.487 46.3944 183.068 46.8333 182.549 46.8533C181.552 46.8932 180.454 46.8732 179.277 46.8533C175.366 46.7934 169.979 46.7336 169.42 49.0481C169.281 49.6268 169.38 50.2054 169.76 50.7641C170.298 51.5622 171.296 52.1808 172.334 52.3404C172.852 52.4202 173.211 52.8991 173.132 53.4378C173.012 53.8967 172.613 54.2359 172.134 54.2359Z" fill="#0374FA"/>
<path d="M171.635 47.0529C171.595 47.0529 171.535 47.0529 171.495 47.0329C170.019 46.8134 168.463 45.736 167.545 44.2994C166.786 43.1221 166.547 41.8651 166.866 40.7277C167.884 37.1362 173.73 37.1362 178.918 37.1362C179.956 37.1362 180.933 37.1362 181.791 37.0963C182.31 37.0763 182.769 37.4953 182.789 38.0141C182.809 38.5529 182.39 38.9918 181.871 39.0118C180.973 39.0517 179.975 39.0517 178.918 39.0517C174.867 39.0517 169.34 39.0517 168.722 41.2465C168.502 42.0446 168.902 42.8428 169.161 43.2618C169.779 44.2195 170.857 44.9977 171.795 45.1374C172.314 45.2172 172.673 45.6961 172.593 46.2348C172.513 46.7137 172.094 47.0529 171.635 47.0529Z" fill="#0374FA"/>
<path d="M171.595 39.5107C171.495 39.5107 171.416 39.4907 171.316 39.4708C166.148 37.9144 166.447 34.702 166.826 33.405C167.824 29.8334 174.289 29.8733 179.955 29.9132C181.133 29.9132 182.25 29.9332 183.148 29.8933C183.687 29.8733 184.126 30.2923 184.146 30.8111C184.166 31.3498 183.747 31.7888 183.228 31.8088C182.27 31.8487 181.153 31.8487 179.955 31.8287C175.965 31.8088 169.3 31.7689 168.682 33.9238C168.203 35.5999 169.281 36.8569 171.894 37.6351C172.393 37.7947 172.693 38.3334 172.533 38.8323C172.393 39.2513 172.014 39.5107 171.595 39.5107Z" fill="#0374FA"/>
<path d="M170.617 32.2078C170.577 32.2078 170.517 32.2078 170.478 32.1878C168.901 31.9484 167.345 30.9707 166.527 29.7136C165.888 28.716 165.709 27.6186 166.008 26.5411C167.026 22.9495 172.872 22.9495 178.06 22.9495C179.097 22.9495 180.075 22.9495 180.953 22.9096C181.492 22.8897 181.931 23.3087 181.951 23.8275C181.971 24.3662 181.552 24.8052 181.033 24.8251C180.135 24.865 179.137 24.865 178.08 24.865C174.029 24.865 168.502 24.865 167.884 27.0599C167.724 27.5986 167.824 28.1573 168.163 28.6761C168.682 29.4942 169.739 30.1526 170.797 30.3122C171.316 30.392 171.675 30.8709 171.595 31.4097C171.475 31.8686 171.076 32.2078 170.617 32.2078Z" fill="#0374FA"/>
<path d="M32.8325 144.621H15.1504C7.86023 144.621 1.95039 150.531 1.95039 157.821V175.503C1.95039 182.793 7.86022 188.703 15.1504 188.703H32.8325C40.1226 188.703 46.0325 182.793 46.0325 175.503V157.821C46.0325 150.531 40.1227 144.621 32.8325 144.621Z" fill="white" stroke="#0374FA" stroke-width="2.4"/>
<path d="M23.7418 179.362C23.4625 179.362 23.2031 179.242 23.0235 179.043L12.0094 166.592C11.6502 166.193 11.6901 165.594 12.0892 165.235C12.4883 164.876 13.0869 164.916 13.446 165.315L23.5423 176.728L35.8334 153.064C36.0729 152.585 36.6515 152.405 37.1304 152.665C37.6092 152.904 37.7888 153.483 37.5294 153.962L24.5998 178.863C24.4601 179.143 24.1808 179.342 23.8615 179.382C23.8216 179.362 23.7817 179.362 23.7418 179.362Z" fill="#0374FA"/>
<path d="M273.336 123.693L269.066 129.46C268.327 130.457 269.984 131.415 270.722 130.417C272.138 128.502 273.575 126.566 274.992 124.651C275.73 123.673 274.054 122.715 273.336 123.693Z" fill="#FF62E6"/>
<path d="M275.231 141.033C273.116 141.033 271.4 139.317 271.4 137.202C271.4 135.087 273.116 133.371 275.231 133.371C277.346 133.371 279.062 135.087 279.062 137.202C279.062 139.317 277.346 141.033 275.231 141.033ZM275.231 135.286C274.174 135.286 273.316 136.144 273.316 137.202C273.316 138.259 274.174 139.117 275.231 139.117C276.289 139.117 277.147 138.259 277.147 137.202C277.147 136.144 276.289 135.286 275.231 135.286Z" fill="#FF62E6"/>
<path d="M206.692 150.869C206.593 150.869 206.473 150.869 206.373 150.869C202.163 150.709 198.631 147.417 196.736 141.83L194.401 132.353C191.987 132.572 185.323 132.652 180.953 127.225C177.461 122.895 180.015 114.714 183.227 104.338C184.943 98.7914 186.899 92.5062 187.936 86.4005C187.936 86.3606 187.956 86.3207 187.956 86.2808C189.413 81.492 192.625 78.4592 197.235 77.5214C205.196 75.8852 215.113 80.7737 219.722 86.2409C224.191 91.5484 226.167 99.0708 224.989 106.414C222.715 120.6 215.152 125.648 212.638 126.965L217.068 142.229C217.128 142.449 217.108 142.668 217.028 142.868C214.933 147.756 210.902 150.869 206.692 150.869ZM195.12 130.337C195.559 130.337 195.938 130.637 196.057 131.076L198.571 141.292C200.208 146.08 203.021 148.814 206.453 148.954C209.905 149.093 213.277 146.519 215.152 142.409L210.583 126.686C210.444 126.207 210.703 125.708 211.162 125.529C211.262 125.489 220.6 121.678 223.114 106.094C224.211 99.3102 222.395 92.3466 218.285 87.458C213.995 82.3899 204.677 77.9204 197.634 79.377C193.703 80.1951 191.089 82.6693 189.832 86.7597C188.754 92.9651 186.799 99.2903 185.063 104.877C182.13 114.315 179.616 122.476 182.449 126.008C187.039 131.714 194.88 130.357 194.94 130.337C195 130.337 195.06 130.337 195.12 130.337Z" fill="#201000"/>
<path d="M224.051 106.234C221.857 119.902 214.075 126.067 211.72 127.304C210.424 126.885 210.004 125.848 209.047 124.75C207.171 122.615 206.672 119.582 206.573 116.43C215.212 117.388 220.26 113.576 219.642 106.952C219.243 102.682 214.035 98.3323 206.034 101.724C206.533 96.9156 206.393 92.087 204.617 87.8569C202.722 83.3874 198.99 80.7536 194.7 79.3568C202.123 75.7852 213.776 80.6338 219.003 86.8393C223.313 91.9473 225.169 99.2701 224.051 106.234Z" fill="#201000"/>
<path d="M180.793 112.499C180.514 112.499 180.235 112.379 180.035 112.14C176.364 107.431 178.658 104.278 182.829 98.532C183.567 97.5143 184.365 96.397 185.223 95.1599C185.522 94.7209 186.121 94.6211 186.56 94.9204C186.999 95.2197 187.099 95.8183 186.799 96.2573C185.941 97.5143 185.123 98.6317 184.385 99.6493C180.035 105.655 178.898 107.551 181.552 110.963C181.871 111.382 181.811 111.98 181.392 112.3C181.212 112.419 180.993 112.499 180.793 112.499Z" fill="#201000"/>
<path d="M209.107 117.547C207.291 117.547 205.316 117.308 203.201 116.849C202.682 116.729 202.363 116.23 202.482 115.712C202.602 115.193 203.101 114.854 203.62 114.993C209.326 116.25 213.896 115.692 216.509 113.397C218.186 111.921 218.944 109.726 218.684 107.092C218.505 105.256 217.288 103.5 215.472 102.483C212.798 100.986 209.207 101.206 205.376 103.101C204.897 103.341 204.318 103.141 204.099 102.662C203.859 102.183 204.059 101.605 204.538 101.385C210.484 98.4323 214.534 99.7492 216.41 100.807C218.784 102.124 220.36 104.418 220.6 106.892C220.919 110.185 219.941 112.918 217.786 114.834C215.731 116.61 212.738 117.547 209.107 117.547Z" fill="#201000"/>
<path d="M202.722 77.5213C198.153 76.5436 187.777 70.5576 186.58 78.3992C186.121 81.452 188.575 83.8265 191.049 85.0636C195.998 87.5577 201.325 87.3781 202.922 93.7033C203.52 96.1176 204.358 100.747 207.191 101.665C209.486 102.403 210.783 99.1704 211.461 97.1152C213.616 90.6504 208.229 79.776 202.722 77.5213Z" fill="#201000"/>
<path d="M212.26 107.092C209.965 106.573 207.71 107.471 206.373 109.387C205.675 110.404 207.331 111.362 208.03 110.344C208.868 109.147 210.344 108.608 211.761 108.928C212.938 109.227 213.457 107.371 212.26 107.092Z" fill="#201000"/>
<path d="M189.972 96.8359C188.575 96.8359 188.575 98.9909 189.972 98.9909C191.348 98.9909 191.368 96.8359 189.972 96.8359Z" fill="#201000"/>
<path d="M192.625 93.4041C191.987 93.2445 191.348 93.0849 190.71 92.9252C189.513 92.6259 188.994 94.4816 190.191 94.7809C190.83 94.9405 191.468 95.1001 192.107 95.2598C193.304 95.5591 193.823 93.7034 192.625 93.4041Z" fill="#201000"/>
<path d="M191.169 116.849C190.331 117.907 189.074 118.326 187.797 117.927C186.62 117.547 186.121 119.403 187.278 119.782C189.154 120.381 191.289 119.762 192.526 118.206C193.284 117.248 191.947 115.891 191.169 116.849Z" fill="#201000"/>
<path d="M243.706 113.257C240.513 107.69 241.471 102.243 240.054 96.2771C237.301 84.6644 224.95 86.101 216.07 88.8147C214.893 89.1738 215.392 91.0294 216.589 90.6703C217.208 90.4907 217.826 90.2912 218.465 90.1116C217.866 91.9473 218.405 93.9626 219.762 95.3194C220.5 96.0576 220.879 93.4837 220.64 92.6856C222.795 92.6856 224.471 93.4837 225.668 94.6011C230.676 99.2701 225.269 111.342 226.606 117.607C228.262 125.349 238.997 132.233 244.743 123.932C247.357 120.101 245.761 116.829 243.706 113.257Z" fill="#201000"/>
<path d="M223.114 225.035C222.954 225.035 222.795 224.995 222.655 224.915C221.239 224.137 220.46 222.481 220.74 220.885C221.019 219.328 222.196 218.251 223.912 217.991L224.112 217.971C227.185 217.493 231.375 216.854 237.161 220.226C237.62 220.486 237.78 221.084 237.5 221.543C237.241 222.002 236.642 222.162 236.183 221.882C230.996 218.849 227.324 219.408 224.391 219.867L224.192 219.887C223.314 220.027 222.755 220.505 222.615 221.224C222.476 222.022 222.875 222.84 223.573 223.239C224.032 223.498 224.212 224.077 223.952 224.536C223.773 224.855 223.453 225.035 223.114 225.035Z" fill="#201000"/>
<path d="M222.416 220.366C222.256 220.366 222.096 220.326 221.957 220.246C220.54 219.468 219.762 217.812 220.041 216.215C220.321 214.659 221.498 213.582 223.214 213.322L223.393 213.302C226.466 212.823 230.656 212.185 236.443 215.557C236.902 215.816 237.061 216.415 236.782 216.874C236.523 217.333 235.924 217.492 235.465 217.213C230.277 214.18 226.606 214.739 223.673 215.198L223.473 215.218C222.595 215.357 222.037 215.836 221.897 216.555C221.757 217.353 222.156 218.171 222.855 218.57C223.314 218.829 223.493 219.408 223.234 219.867C223.074 220.186 222.755 220.366 222.416 220.366Z" fill="#201000"/>
<path d="M222.176 215.696C222.017 215.696 221.857 215.657 221.717 215.577C220.301 214.799 219.522 213.142 219.802 211.546C220.081 209.99 221.258 208.912 222.974 208.653C226.007 208.194 233.589 208.793 239.276 211.426L235.485 174.653C235.445 174.334 235.585 174.014 235.824 173.815C236.063 173.615 236.403 173.535 236.702 173.635C240.114 174.653 270.163 183.652 272.538 185.068C272.797 185.228 272.957 185.487 272.997 185.767C273.037 186.066 272.937 186.345 272.717 186.565C266.811 192.531 247.397 212.065 245.96 212.783C245.601 212.963 245.202 213.003 244.843 212.863C244.065 212.584 243.666 211.746 243.167 210.688C242.608 209.491 241.95 208.074 240.772 207.356L241.351 212.983C241.391 213.342 241.211 213.681 240.912 213.881C240.613 214.08 240.214 214.08 239.914 213.901C234.627 210.808 226.267 210.05 223.254 210.509C222.376 210.648 221.817 211.127 221.677 211.846C221.538 212.644 221.937 213.462 222.635 213.861C223.094 214.12 223.274 214.699 223.014 215.158C222.855 215.517 222.515 215.696 222.176 215.696ZM240.553 205.201C243.047 205.899 244.164 208.294 244.923 209.89C245.062 210.209 245.262 210.588 245.402 210.868C247.776 208.872 261.045 195.664 270.383 186.246C265.734 184.49 249.352 179.462 237.54 175.91L240.553 205.201Z" fill="#201000"/>
<path d="M244.524 237.286C240.972 237.286 238.159 235.091 235.425 232.956C232.911 231.001 230.517 229.145 227.823 229.245C223.174 229.424 221.917 227.549 221.578 226.431C221.218 225.234 221.677 223.837 222.635 223.279C224.351 222.241 230.856 221.403 236.742 225.414C237.181 225.713 237.301 226.312 237.001 226.751C236.702 227.19 236.104 227.309 235.665 227.01C230.297 223.358 224.591 224.356 223.613 224.935C223.513 224.995 223.254 225.414 223.413 225.912C223.713 226.91 225.349 227.449 227.743 227.349C231.115 227.229 233.909 229.384 236.582 231.479C239.336 233.634 241.97 235.67 245.122 235.37C247.357 235.171 255.039 230.821 278.923 211.207C290.057 202.069 300.412 192.77 300.891 186.625C302.029 171.72 284.889 165.454 261.145 156.795L258.531 155.837C238.558 148.534 230.557 146.02 215.951 143.426C215.432 143.326 215.073 142.828 215.173 142.309C215.272 141.79 215.751 141.451 216.29 141.531C231.015 144.145 239.097 146.679 259.189 154.021L261.803 154.979C286.326 163.938 304.044 170.403 302.787 186.764C302.228 193.987 290.795 203.924 280.12 212.684C253.822 234.273 247.636 237.046 245.282 237.266C245.043 237.286 244.783 237.286 244.524 237.286Z" fill="#201000"/>
<path d="M260.227 182.395C259.947 182.395 259.648 182.275 259.469 182.016C259.149 181.597 259.229 180.998 259.648 180.679C259.748 180.599 268.846 173.416 268.846 159.409C268.846 158.87 269.266 158.451 269.804 158.451C270.343 158.451 270.762 158.89 270.762 159.409C270.762 174.393 261.204 181.896 260.805 182.195C260.646 182.335 260.426 182.395 260.227 182.395Z" fill="#201000"/>
<path d="M155.473 181.757C155.413 181.757 155.353 181.757 155.293 181.737C154.774 181.637 154.435 181.138 154.535 180.619C154.555 180.46 157.448 165.116 160.78 151.827C164.352 137.52 174.628 136.782 197.793 140.573C198.312 140.653 198.671 141.152 198.591 141.671C198.511 142.19 198.013 142.549 197.494 142.469C174.528 138.718 165.808 139.635 162.656 152.286C159.343 165.515 156.47 180.819 156.43 180.978C156.331 181.437 155.931 181.757 155.473 181.757Z" fill="#201000"/>
<path d="M174.727 186.007C174.807 185.288 174.907 184.57 175.027 183.852C174.129 181.757 171.854 180.22 169.959 179.242C165.629 177.028 158.885 175.591 155.552 177.187C155.074 177.407 154.874 177.985 155.094 178.464C155.313 178.943 155.892 179.143 156.371 178.923C158.745 177.786 164.791 178.764 169.081 180.958C171.655 182.275 173.211 183.812 173.47 185.268C173.55 185.727 173.949 186.066 174.408 186.066C174.468 186.066 174.528 186.066 174.588 186.047C174.628 186.047 174.668 186.027 174.727 186.007Z" fill="#201000"/>
<path d="M157.388 196.123C156.929 196.123 156.51 195.784 156.45 195.305C156.371 194.766 148.25 140.534 142.224 131.495C141.924 131.056 142.044 130.457 142.483 130.158C142.922 129.859 143.521 129.978 143.82 130.417C150.065 139.795 158.007 192.751 158.346 195.006C158.426 195.524 158.067 196.023 157.548 196.103C157.488 196.123 157.448 196.123 157.388 196.123Z" fill="#201000"/>
<path d="M148.968 130.277L145.276 128.881C145.037 128.781 144.778 128.801 144.538 128.901C144.299 129 144.119 129.2 144.039 129.439L140.727 138.179C140.548 138.678 140.787 139.236 141.286 139.416L144.977 140.813C145.636 141.052 146.314 141.192 146.972 141.192C147.751 141.192 148.529 141.032 149.267 140.693C150.644 140.074 151.681 138.957 152.22 137.56C153.337 134.647 151.881 131.395 148.968 130.277Z" fill="#FF62E6"/>
<path d="M112.932 116.969C112.773 116.47 112.234 116.191 111.735 116.35L104.752 118.565C104.472 118.645 104.253 118.864 104.153 119.124C104.053 119.383 104.073 119.702 104.213 119.942L107.884 126.466C108.064 126.786 108.383 126.945 108.722 126.945C108.882 126.945 109.041 126.905 109.181 126.826C109.64 126.566 109.8 125.987 109.54 125.529L109.141 124.83L111.575 118.405L112.294 118.186C112.813 118.006 113.112 117.467 112.932 116.969Z" fill="white"/>
<path d="M145.815 129.38C145.715 129.14 145.516 128.96 145.276 128.881L112.374 116.37C111.875 116.19 111.316 116.43 111.137 116.929L107.824 125.668C107.725 125.908 107.745 126.167 107.844 126.407C107.944 126.646 108.144 126.826 108.383 126.905L141.286 139.416C141.406 139.456 141.505 139.476 141.625 139.476C142.004 139.476 142.383 139.236 142.523 138.857L145.835 130.118C145.935 129.878 145.915 129.619 145.815 129.38Z" fill="#201000"/>
<path d="M105.031 120.421C104.911 120.421 104.812 120.401 104.692 120.361L101.1 119.004C100.601 118.824 100.362 118.266 100.542 117.767C100.721 117.268 101.28 117.029 101.779 117.208L105.37 118.565C105.869 118.745 106.108 119.303 105.929 119.802C105.789 120.201 105.43 120.421 105.031 120.421Z" fill="#201000"/>
<path d="M131.848 135.964V164.178H130.092C128.456 155.359 127.818 151.248 126.74 147.018C123.069 132.412 117.282 127.724 120.275 126.427C122.63 125.389 126.7 134.228 131.848 135.964Z" fill="white"/>
<path d="M157.668 223.419C156.011 223.419 154.275 223.259 152.44 222.94C137.934 220.386 134.602 200.732 131.649 183.413C131.13 180.36 130.631 177.487 130.092 174.753C127.997 164.158 127.379 158.591 126.94 154.52C126.62 151.687 126.401 149.652 125.802 147.258C123.927 139.775 121.313 135.026 119.577 131.894C117.881 128.801 116.764 126.766 118.759 125.389C121.373 123.593 123.727 126.746 126.022 129.799C128.137 132.632 130.551 135.824 132.906 135.306C133.424 135.186 133.943 135.525 134.043 136.024C134.163 136.543 133.824 137.061 133.325 137.161C129.753 137.959 126.94 134.228 124.485 130.936C122.41 128.162 120.874 126.247 119.856 126.945C119.338 127.304 119.836 128.322 121.273 130.936C123.049 134.148 125.723 139.017 127.678 146.759C128.316 149.293 128.556 151.388 128.875 154.281C129.314 158.312 129.933 163.819 132.008 174.354C132.547 177.107 133.045 180.001 133.564 183.053C136.397 199.754 139.63 218.69 152.799 221.024C162.297 222.7 168.961 219.648 172.612 211.986C172.832 211.507 173.411 211.307 173.889 211.527C174.368 211.746 174.568 212.325 174.348 212.804C170.976 219.867 165.389 223.419 157.668 223.419Z" fill="#201000"/>
<path d="M124.226 120.061C124.226 120.061 121.452 120.56 118.938 121.318C115.706 122.296 116.025 116.989 122.63 116.609C125.662 116.45 128.835 119.303 129.174 122.994" fill="white"/>
<path d="M129.174 123.952C128.676 123.952 128.276 123.573 128.217 123.074C127.917 119.762 125.004 117.408 122.67 117.567C119.816 117.727 118.36 118.884 117.981 119.802C117.861 120.101 117.881 120.341 117.941 120.401C118.001 120.46 118.24 120.52 118.659 120.381C121.193 119.622 123.947 119.124 124.046 119.104C124.565 119.004 125.064 119.363 125.164 119.882C125.264 120.401 124.904 120.899 124.386 120.999C124.366 120.999 121.632 121.498 119.198 122.236C118.1 122.575 117.123 122.376 116.504 121.697C115.906 121.039 115.786 120.061 116.205 119.084C116.823 117.567 118.839 115.871 122.57 115.652C126.241 115.452 129.753 118.844 130.132 122.915C130.172 123.433 129.793 123.912 129.274 123.952C129.234 123.952 129.214 123.952 129.174 123.952Z" fill="#201000"/>
<path d="M127.379 121.817C127.379 121.817 124.605 122.316 122.091 123.074C118.859 124.052 119.178 118.745 125.782 118.366C128.815 118.206 131.988 121.059 132.327 124.751" fill="white"/>
<path d="M132.327 125.708C131.828 125.708 131.429 125.329 131.369 124.83C131.07 121.518 128.197 119.164 125.822 119.323C122.969 119.483 121.512 120.64 121.133 121.558C121.014 121.857 121.034 122.097 121.093 122.157C121.153 122.216 121.393 122.276 121.812 122.137C124.346 121.378 127.099 120.88 127.199 120.86C127.718 120.76 128.217 121.119 128.316 121.638C128.416 122.157 128.057 122.655 127.538 122.755C127.518 122.755 124.785 123.254 122.35 123.992C121.253 124.332 120.275 124.132 119.657 123.454C119.058 122.795 118.938 121.817 119.357 120.84C119.976 119.323 121.971 117.627 125.722 117.408C129.374 117.208 132.906 120.6 133.285 124.671C133.325 125.19 132.946 125.668 132.427 125.708C132.387 125.708 132.347 125.708 132.327 125.708Z" fill="#201000"/>
<path d="M130.89 123.334C130.89 123.334 128.117 123.832 125.603 124.591C122.37 125.568 122.69 120.261 129.294 119.882C131.469 119.762 133.744 121.219 134.961 123.413" fill="white"/>
<path d="M124.865 125.668C124.186 125.668 123.607 125.429 123.188 124.97C122.59 124.312 122.47 123.334 122.889 122.356C123.508 120.84 125.503 119.144 129.254 118.924C131.788 118.784 134.402 120.401 135.819 122.955C136.078 123.414 135.899 123.992 135.44 124.252C134.981 124.511 134.402 124.351 134.143 123.873C133.085 121.957 131.17 120.72 129.374 120.84C126.521 120.999 125.064 122.157 124.685 123.074C124.565 123.374 124.585 123.613 124.645 123.673C124.705 123.733 124.944 123.793 125.363 123.653C127.897 122.895 130.651 122.396 130.751 122.376C131.269 122.276 131.768 122.635 131.868 123.154C131.968 123.673 131.609 124.172 131.09 124.272C131.07 124.272 128.336 124.77 125.902 125.509C125.523 125.608 125.184 125.668 124.865 125.668Z" fill="#201000"/>
<path d="M134.302 124.85C134.302 124.85 131.529 125.349 129.015 126.107C125.782 127.085 126.102 121.777 132.706 121.398C135.739 121.239 140.947 123.633 142.064 127.624L134.302 124.85Z" fill="white"/>
<path d="M142.064 128.582C141.645 128.582 141.266 128.302 141.146 127.883C140.189 124.471 135.5 122.216 132.766 122.356C129.913 122.516 128.456 123.673 128.077 124.591C127.957 124.89 127.977 125.13 128.037 125.189C128.097 125.249 128.337 125.309 128.756 125.17C131.29 124.411 134.043 123.912 134.143 123.893C134.662 123.793 135.16 124.152 135.26 124.671C135.36 125.189 135.001 125.688 134.482 125.788C134.462 125.788 131.729 126.287 129.294 127.025C128.197 127.344 127.219 127.165 126.601 126.486C126.002 125.828 125.882 124.85 126.301 123.873C126.92 122.356 128.935 120.66 132.666 120.441C136.038 120.261 141.745 122.855 143.002 127.364C143.142 127.883 142.842 128.402 142.344 128.542C142.244 128.562 142.144 128.582 142.064 128.582Z" fill="#201000"/>
<path d="M205.894 221.902C189.992 221.902 174.648 218.67 174.428 218.61C173.909 218.49 173.59 217.992 173.69 217.473C173.81 216.954 174.308 216.635 174.827 216.735C175.106 216.794 202.981 222.681 222.196 218.47C222.715 218.351 223.213 218.69 223.333 219.209C223.453 219.727 223.114 220.246 222.595 220.346C217.427 221.483 211.621 221.902 205.894 221.902Z" fill="#201000"/>
<path d="M199.549 233.016C199.03 233.016 198.611 232.617 198.591 232.098L198.113 221.084C198.093 220.565 198.492 220.106 199.03 220.086C199.569 220.086 200.008 220.466 200.028 221.004L200.507 232.018C200.527 232.537 200.128 232.996 199.589 233.016C199.569 233.016 199.569 233.016 199.549 233.016Z" fill="#201000"/>
<path d="M193.324 232.537C192.805 232.537 192.386 232.138 192.366 231.619L191.887 220.605C191.867 220.087 192.266 219.628 192.805 219.608C193.324 219.588 193.782 219.987 193.802 220.525L194.281 231.54C194.301 232.058 193.902 232.517 193.363 232.537C193.344 232.537 193.344 232.537 193.324 232.537Z" fill="#201000"/>
<path d="M205.056 227.01C189.194 227.01 174.668 224.416 174.468 224.376C173.949 224.276 173.61 223.778 173.69 223.259C173.79 222.74 174.289 222.401 174.807 222.481C175.067 222.521 201.225 227.209 221.438 223.917C221.957 223.817 222.456 224.197 222.535 224.715C222.615 225.234 222.256 225.733 221.737 225.813C216.39 226.691 210.643 227.01 205.056 227.01Z" fill="#201000"/>
<path d="M173.211 237.326C172.991 237.326 172.792 237.246 172.612 237.127C172.373 236.947 172.233 236.668 172.253 236.368L173.37 162.602C173.37 162.083 173.809 161.664 174.328 161.664C174.328 161.664 174.328 161.664 174.348 161.664C174.867 161.664 175.306 162.103 175.286 162.642L174.189 235.051C179.376 232.737 180.713 225.155 180.733 225.075C180.813 224.556 181.312 224.197 181.831 224.297C182.349 224.377 182.709 224.875 182.609 225.394C182.529 225.813 180.813 235.451 173.43 237.346C173.37 237.306 173.291 237.326 173.211 237.326Z" fill="#201000"/>
<path d="M235.145 240C222.575 240 216.928 226.811 216.868 226.671C216.669 226.192 216.888 225.613 217.387 225.414C217.886 225.214 218.444 225.434 218.644 225.933C218.883 226.511 224.77 240.199 238.198 237.805C238.717 237.705 239.216 238.064 239.315 238.583C239.415 239.102 239.056 239.601 238.537 239.7C237.34 239.92 236.223 240 235.145 240Z" fill="#201000"/>
</svg>
