<svg width="23" height="22" viewBox="0 0 23 22" fill="none" xmlns="http://www.w3.org/2000/svg">
<path fill-rule="evenodd" clip-rule="evenodd" d="M9.16684 2.66663C8.98311 2.66663 8.8335 2.81625 8.8335 2.99996V5.33331H14.1668V2.99996C14.1668 2.81621 14.0172 2.66663 13.8335 2.66663H9.16684ZM16.1668 5.33331V2.99996C16.1668 1.7117 15.1218 0.666626 13.8335 0.666626H9.16684C7.87856 0.666626 6.8335 1.71166 6.8335 2.99996V5.33331H4.5002C2.47515 5.33331 0.833526 6.97493 0.833526 8.99998L0.833496 17.6666C0.833496 19.6916 2.47512 21.3333 4.50017 21.3333H18.5001C20.5252 21.3333 22.1668 19.6917 22.1668 17.6666V8.99998C22.1668 6.97497 20.5254 5.33331 18.5002 5.33331H16.1668ZM20.1668 8.99998C20.1668 8.07946 19.4207 7.33331 18.5002 7.33331H4.5002C3.57972 7.33331 2.83353 8.0795 2.83353 8.99998L2.83352 12.0738C4.445 12.6881 6.72231 13.3585 9.50023 13.5881V12.3333C9.50023 11.2287 10.3956 10.3333 11.5002 10.3333C12.6046 10.3333 13.5002 11.2286 13.5002 12.3333V13.5881C16.278 13.3585 18.5553 12.6881 20.1668 12.0738V8.99998ZM20.1668 14.2025C18.4534 14.7994 16.1897 15.3891 13.5001 15.5944L13.5001 15.65C13.5001 15.65 13.5001 15.6499 13.5001 15.65C13.5001 16.7545 12.6047 17.65 11.5001 17.65C10.3955 17.65 9.50013 16.7545 9.50013 15.65L9.50013 15.5944C6.81061 15.3891 4.54686 14.7994 2.83351 14.2024L2.8335 17.6666C2.8335 18.5871 3.5797 19.3333 4.50017 19.3333H18.5001C19.4206 19.3333 20.1668 18.5871 20.1668 17.6666V14.2025Z" fill="#FC5E5E"/>
</svg>
