<svg width="22" height="22" viewBox="0 0 22 22" fill="none" xmlns="http://www.w3.org/2000/svg">
<path fill-rule="evenodd" clip-rule="evenodd" d="M5.1665 8.33219C5.1665 6.30714 6.80813 4.66553 8.83317 4.66553H18.1665C20.1916 4.66553 21.8332 6.30713 21.8332 8.33219V17.6655C21.8332 19.6906 20.1916 21.3322 18.1665 21.3322H8.83317C6.80812 21.3322 5.1665 19.6906 5.1665 17.6655V8.33219ZM8.83317 6.66553C7.91269 6.66553 7.1665 7.41172 7.1665 8.33219V17.6655C7.1665 18.5861 7.9127 19.3322 8.83317 19.3322H18.1665C19.087 19.3322 19.8332 18.5861 19.8332 17.6655V8.33219C19.8332 7.41172 19.087 6.66553 18.1665 6.66553H8.83317Z" fill="#0374FA"/>
<path fill-rule="evenodd" clip-rule="evenodd" d="M14.9431 3.04082C14.6614 2.34221 13.9298 1.90296 13.1539 2.01856L3.92161 3.39061C3.01256 3.52547 2.38353 4.37232 2.51842 5.2838L3.89042 14.5158C3.9716 15.0621 3.59456 15.5707 3.04828 15.6519C2.50199 15.7331 1.99333 15.3561 1.91214 14.8098L0.540143 5.5778C0.243274 3.57486 1.62492 1.70958 3.62761 1.41234M3.62761 1.41234L12.8592 0.0403912C12.8593 0.0403732 12.8591 0.0404091 12.8592 0.0403912C14.5712 -0.2145 16.1786 0.756842 16.798 2.29279C17.0046 2.80499 16.7568 3.38767 16.2446 3.59423C15.7324 3.80079 15.1497 3.55302 14.9431 3.04082" fill="#0374FA"/>
<path fill-rule="evenodd" clip-rule="evenodd" d="M13.5 8.66553C14.0523 8.66553 14.5 9.11324 14.5 9.66553V16.3322C14.5 16.8845 14.0523 17.3322 13.5 17.3322C12.9477 17.3322 12.5 16.8845 12.5 16.3322V9.66553C12.5 9.11324 12.9477 8.66553 13.5 8.66553Z" fill="#0374FA"/>
<path fill-rule="evenodd" clip-rule="evenodd" d="M9.1665 12.9988C9.1665 12.4465 9.61422 11.9988 10.1665 11.9988H16.8332C17.3855 11.9988 17.8332 12.4465 17.8332 12.9988C17.8332 13.5511 17.3855 13.9988 16.8332 13.9988H10.1665C9.61422 13.9988 9.1665 13.5511 9.1665 12.9988Z" fill="#0374FA"/>
</svg>
