<svg width="20" height="21" viewBox="0 0 20 21" fill="none" xmlns="http://www.w3.org/2000/svg">
<path d="M18.8946 4.3905L11.0693 0.270503C10.388 -0.0908372 9.57462 -0.0894973 8.89462 0.270503L1.068 4.3905C0.40933 4.73716 0 5.41583 0 6.15983C0 6.90383 0.40933 7.5825 1.068 7.92916L8.89332 12.0492C9.23332 12.2292 9.60802 12.3199 9.98132 12.3199C10.3546 12.3199 10.728 12.2305 11.068 12.0505L18.8946 7.92916C19.5533 7.5825 19.9626 6.90383 19.9626 6.15983C19.9626 5.41583 19.5533 4.73716 18.8946 4.3905Z" fill="white"/>
<path d="M18.9626 9.49316C18.4106 9.49316 17.9626 9.94116 17.9626 10.4932L10.136 14.6145C10.04 14.6652 9.92532 14.6652 9.82662 14.6145L2 10.4932C2 9.94116 1.552 9.49316 1 9.49316C0.448 9.49316 0 9.94116 0 10.4932C0 11.2385 0.40933 11.9159 1.068 12.2625L8.89332 16.3825C9.23332 16.5625 9.60802 16.6532 9.98132 16.6532C10.3546 16.6532 10.728 16.5639 11.068 16.3839L18.8946 12.2625C19.5533 11.9159 19.9626 11.2372 19.9626 10.4932C19.9626 9.94116 19.5146 9.49316 18.9626 9.49316Z" fill="white"/>
<path d="M18.9626 13.8265C18.4106 13.8265 17.9626 14.2745 17.9626 14.8265L10.136 18.9478C10.04 18.9985 9.92532 18.9985 9.82662 18.9478L2 14.8265C2 14.2745 1.552 13.8265 1 13.8265C0.448 13.8265 0 14.2745 0 14.8265C0 15.5718 0.40933 16.2492 1.068 16.5958L8.89332 20.7158C9.23332 20.8958 9.60802 20.9865 9.98132 20.9865C10.3546 20.9865 10.728 20.8972 11.068 20.7172L18.8946 16.5958C19.5533 16.2492 19.9626 15.5705 19.9626 14.8265C19.9626 14.2745 19.5146 13.8265 18.9626 13.8265Z" fill="white"/>
</svg>
