<svg width="22" height="22" viewBox="0 0 22 22" fill="none" xmlns="http://www.w3.org/2000/svg">
<path d="M14.9986 14.6667C14.8039 14.6667 14.6039 14.6093 14.4306 14.4893L10.0973 11.4893C9.82793 11.3027 9.66663 10.9947 9.66663 10.6667V5C9.66663 4.448 10.1146 4 10.6666 4C11.2186 4 11.6666 4.448 11.6666 5V10.1427L15.5693 12.844C16.0239 13.1587 16.1373 13.7813 15.8213 14.2347C15.6266 14.5147 15.3159 14.6653 14.9986 14.6653V14.6667Z" fill="white"/>
<path d="M10.6666 21.3333C10.1146 21.3333 9.66663 20.8853 9.66663 20.3333C9.66663 19.7813 10.1146 19.3333 10.6666 19.3333C15.4453 19.3333 19.3333 15.4453 19.3333 10.6667C19.3333 5.888 15.4453 2 10.6666 2C10.1146 2 9.66663 1.552 9.66663 1C9.66663 0.448 10.1146 0 10.6666 0C16.5479 0 21.3333 4.78534 21.3333 10.6667C21.3333 16.548 16.5479 21.3333 10.6666 21.3333Z" fill="white"/>
<path d="M3.83069 18.5027C4.38298 18.5027 4.83069 18.055 4.83069 17.5027C4.83069 16.9504 4.38298 16.5027 3.83069 16.5027C3.27841 16.5027 2.83069 16.9504 2.83069 17.5027C2.83069 18.055 3.27841 18.5027 3.83069 18.5027Z" fill="white"/>
<path d="M1 11.6667C1.55229 11.6667 2 11.219 2 10.6667C2 10.1144 1.55229 9.66669 1 9.66669C0.44772 9.66669 0 10.1144 0 10.6667C0 11.219 0.44772 11.6667 1 11.6667Z" fill="white"/>
<path d="M3.83069 4.83066C4.38298 4.83066 4.83069 4.38295 4.83069 3.83066C4.83069 3.27838 4.38298 2.83066 3.83069 2.83066C3.27841 2.83066 2.83069 3.27838 2.83069 3.83066C2.83069 4.38295 3.27841 4.83066 3.83069 4.83066Z" fill="white"/>
<path d="M6.96802 20.5974C7.52031 20.5974 7.96802 20.1496 7.96802 19.5974C7.96802 19.0451 7.52031 18.5974 6.96802 18.5974C6.41574 18.5974 5.96802 19.0451 5.96802 19.5974C5.96802 20.1496 6.41574 20.5974 6.96802 20.5974Z" fill="white"/>
<path d="M1.73597 15.3653C2.28825 15.3653 2.73597 14.9176 2.73597 14.3653C2.73597 13.8131 2.28825 13.3653 1.73597 13.3653C1.18368 13.3653 0.73597 13.8131 0.73597 14.3653C0.73597 14.9176 1.18368 15.3653 1.73597 15.3653Z" fill="white"/>
<path d="M1.73597 7.96802C2.28825 7.96802 2.73597 7.52031 2.73597 6.96802C2.73597 6.41574 2.28825 5.96802 1.73597 5.96802C1.18368 5.96802 0.73597 6.41574 0.73597 6.96802C0.73597 7.52031 1.18368 7.96802 1.73597 7.96802Z" fill="white"/>
<path d="M6.96802 2.73603C7.52031 2.73603 7.96802 2.28831 7.96802 1.73603C7.96802 1.18374 7.52031 0.73603 6.96802 0.73603C6.41574 0.73603 5.96802 1.18374 5.96802 1.73603C5.96802 2.28831 6.41574 2.73603 6.96802 2.73603Z" fill="white"/>
</svg>
