<svg width="23" height="22" viewBox="0 0 23 22" fill="none" xmlns="http://www.w3.org/2000/svg">
<path d="M15.8321 14.9999C15.6374 14.9999 15.4374 14.9425 15.2641 14.8225L10.9308 11.8225C10.6614 11.6359 10.5001 11.3279 10.5001 10.9999V5.33325C10.5001 4.78125 10.9481 4.33325 11.5001 4.33325C12.0521 4.33325 12.5001 4.78125 12.5001 5.33325V10.4759L16.4028 13.1772C16.8574 13.4919 16.9708 14.1145 16.6548 14.5679C16.4601 14.8479 16.1494 14.9985 15.8321 14.9985V14.9999Z" fill="#FF843F"/>
<path d="M11.5001 21.6665C10.9481 21.6665 10.5001 21.2185 10.5001 20.6665C10.5001 20.1145 10.9481 19.6665 11.5001 19.6665C16.2788 19.6665 20.1668 15.7785 20.1668 10.9999C20.1668 6.22125 16.2788 2.33325 11.5001 2.33325C10.9481 2.33325 10.5001 1.88525 10.5001 1.33325C10.5001 0.781252 10.9481 0.333252 11.5001 0.333252C17.3814 0.333252 22.1668 5.11859 22.1668 10.9999C22.1668 16.8812 17.3814 21.6665 11.5001 21.6665Z" fill="#FF843F"/>
<path d="M4.66419 18.8359C5.21648 18.8359 5.66419 18.3882 5.66419 17.8359C5.66419 17.2836 5.21648 16.8359 4.66419 16.8359C4.11191 16.8359 3.66419 17.2836 3.66419 17.8359C3.66419 18.3882 4.11191 18.8359 4.66419 18.8359Z" fill="#FF843F"/>
<path d="M1.8335 11.9999C2.38579 11.9999 2.8335 11.5522 2.8335 10.9999C2.8335 10.4476 2.38579 9.99994 1.8335 9.99994C1.28122 9.99994 0.833496 10.4476 0.833496 10.9999C0.833496 11.5522 1.28122 11.9999 1.8335 11.9999Z" fill="#FF843F"/>
<path d="M4.66419 5.16391C5.21648 5.16391 5.66419 4.7162 5.66419 4.16391C5.66419 3.61163 5.21648 3.16391 4.66419 3.16391C4.11191 3.16391 3.66419 3.61163 3.66419 4.16391C3.66419 4.7162 4.11191 5.16391 4.66419 5.16391Z" fill="#FF843F"/>
<path d="M7.80152 20.9306C8.35381 20.9306 8.80152 20.4828 8.80152 19.9306C8.80152 19.3783 8.35381 18.9306 7.80152 18.9306C7.24924 18.9306 6.80152 19.3783 6.80152 19.9306C6.80152 20.4828 7.24924 20.9306 7.80152 20.9306Z" fill="#FF843F"/>
<path d="M2.56947 15.6985C3.12175 15.6985 3.56947 15.2508 3.56947 14.6985C3.56947 14.1463 3.12175 13.6985 2.56947 13.6985C2.01718 13.6985 1.56947 14.1463 1.56947 14.6985C1.56947 15.2508 2.01718 15.6985 2.56947 15.6985Z" fill="#FF843F"/>
<path d="M2.56947 8.30127C3.12175 8.30127 3.56947 7.85356 3.56947 7.30127C3.56947 6.74899 3.12175 6.30127 2.56947 6.30127C2.01718 6.30127 1.56947 6.74899 1.56947 7.30127C1.56947 7.85356 2.01718 8.30127 2.56947 8.30127Z" fill="#FF843F"/>
<path d="M7.80152 3.06928C8.35381 3.06928 8.80152 2.62156 8.80152 2.06928C8.80152 1.51699 8.35381 1.06928 7.80152 1.06928C7.24924 1.06928 6.80152 1.51699 6.80152 2.06928C6.80152 2.62156 7.24924 3.06928 7.80152 3.06928Z" fill="#FF843F"/>
</svg>
