<svg width="13" height="13" viewBox="0 0 13 13" fill="none" xmlns="http://www.w3.org/2000/svg">
<path d="M9.06907 12.32C8.75107 12.32 8.44669 12.1416 8.30018 11.835C8.09689 11.4102 8.27633 10.9026 8.70223 10.6993C9.02364 10.5459 9.31666 10.3381 9.5722 10.0826C10.817 8.83781 10.817 6.83098 9.58356 5.59644L7.11335 3.12623C5.88108 1.89397 3.87312 1.89283 2.63972 3.12623C1.39496 4.37099 1.39496 6.37782 2.62836 7.61122L3.68572 8.66859C4.01849 9.00135 4.01849 9.54083 3.68572 9.87359C3.35295 10.2064 2.81348 10.2064 2.48071 9.87359L1.42335 8.81623C-0.47445 6.91843 -0.47445 3.83152 1.42335 1.93372C3.33365 0.0245599 6.42055 0.0234237 8.31722 1.92236L10.7874 4.39257C12.6852 6.29037 12.6852 9.37842 10.7874 11.2762C10.3831 11.6805 9.93223 11.9997 9.43591 12.237C9.3178 12.2938 9.19287 12.32 9.06907 12.32Z" fill="#0374FA"/>
</svg>
