<svg width="17" height="18" viewBox="0 0 17 18" fill="none" xmlns="http://www.w3.org/2000/svg">
<path d="M12.1208 17.5C10.8749 17.5 9.63128 17.0264 8.68408 16.0781L6.21387 13.6079C4.31607 11.7101 4.31607 8.62201 6.21387 6.72421C6.61819 6.31989 7.06908 6.00075 7.56539 5.76338C7.98675 5.55895 8.49669 5.73953 8.70112 6.16543C8.90441 6.59019 8.72497 7.09786 8.29907 7.30116C7.97766 7.45448 7.68464 7.66232 7.4291 7.91786C6.18435 9.16261 6.18435 11.1694 7.41775 12.404L9.88795 14.8742C11.1214 16.1065 13.1282 16.1076 14.3616 14.8742C15.6063 13.6294 15.6063 11.6226 14.3729 10.3892L13.3156 9.33184C12.9828 8.99907 12.9828 8.4596 13.3156 8.12683C13.6483 7.79406 14.1878 7.79406 14.5206 8.12683L15.578 9.18419C17.4758 11.082 17.4758 14.1689 15.578 16.0667C14.6217 17.023 13.3701 17.5 12.1208 17.5Z" fill="#969EA7"/>
<path d="M9.06907 12.32C8.75107 12.32 8.44669 12.1416 8.30018 11.835C8.09689 11.4102 8.27633 10.9026 8.70223 10.6993C9.02364 10.5459 9.31666 10.3381 9.5722 10.0826C10.817 8.83781 10.817 6.83098 9.58356 5.59644L7.11335 3.12623C5.88108 1.89397 3.87312 1.89283 2.63972 3.12623C1.39496 4.37099 1.39496 6.37782 2.62836 7.61122L3.68572 8.66859C4.01849 9.00135 4.01849 9.54083 3.68572 9.87359C3.35295 10.2064 2.81348 10.2064 2.48071 9.87359L1.42335 8.81623C-0.47445 6.91843 -0.47445 3.83152 1.42335 1.93372C3.33365 0.02456 6.42055 0.0234239 8.31722 1.92236L10.7874 4.39257C12.6852 6.29037 12.6852 9.37842 10.7874 11.2762C10.3831 11.6805 9.93223 11.9997 9.43591 12.237C9.3178 12.2938 9.19287 12.32 9.06907 12.32Z" fill="#969EA7"/>
</svg>
