<svg width="17" height="18" viewBox="0 0 17 18" fill="none" xmlns="http://www.w3.org/2000/svg">
<g clip-path="url(#clip0_48_1405)">
<path d="M12.1208 17.5001C10.8749 17.5001 9.63129 17.0265 8.68409 16.0782L6.21388 13.608C4.31608 11.7102 4.31608 8.62206 6.21388 6.72426C6.6182 6.31994 7.06909 6.0008 7.5654 5.76343C7.98676 5.559 8.4967 5.73958 8.70113 6.16548C8.90442 6.59024 8.72498 7.09791 8.29908 7.30121C7.97767 7.45453 7.68465 7.66237 7.42911 7.91791C6.18436 9.16266 6.18436 11.1695 7.41776 12.4041L9.88796 14.8743C11.1214 16.1066 13.1282 16.1077 14.3616 14.8743C15.6063 13.6295 15.6063 11.6227 14.3729 10.3893L13.3156 9.33189C12.9828 8.99912 12.9828 8.45965 13.3156 8.12688C13.6483 7.79411 14.1878 7.79411 14.5206 8.12688L15.578 9.18424C17.4758 11.0821 17.4758 14.169 15.578 16.0668C14.6217 17.0231 13.3701 17.5001 12.1208 17.5001Z" fill="#0374FA"/>
<path d="M9.06907 12.32C8.75107 12.32 8.44669 12.1416 8.30018 11.835C8.09689 11.4102 8.27633 10.9026 8.70223 10.6993C9.02364 10.5459 9.31666 10.3381 9.5722 10.0826C10.817 8.83781 10.817 6.83098 9.58356 5.59644L7.11335 3.12623C5.88108 1.89397 3.87312 1.89283 2.63972 3.12623C1.39496 4.37099 1.39496 6.37782 2.62836 7.61122L3.68572 8.66859C4.01849 9.00135 4.01849 9.54083 3.68572 9.87359C3.35295 10.2064 2.81348 10.2064 2.48071 9.87359L1.42335 8.81623C-0.47445 6.91843 -0.47445 3.83152 1.42335 1.93372C3.33365 0.0245599 6.42055 0.0234237 8.31722 1.92236L10.7874 4.39257C12.6852 6.29037 12.6852 9.37842 10.7874 11.2762C10.3831 11.6805 9.93223 11.9997 9.43591 12.237C9.3178 12.2938 9.19287 12.32 9.06907 12.32Z" fill="#0374FA"/>
</g>
<defs>
<clipPath id="clip0_48_1405">
<rect width="17" height="18" fill="white"/>
</clipPath>
</defs>
</svg>
