<svg width="22" height="22" viewBox="0 0 22 22" fill="none" xmlns="http://www.w3.org/2000/svg">
<path d="M10.6666 12.6667C12.6917 12.6667 14.3333 11.0251 14.3333 8.99999H12.3333C12.3333 9.92051 11.5871 10.6667 10.6666 10.6667V12.6667ZM14.3333 8.99999C14.3333 6.97495 12.6917 5.33335 10.6666 5.33335V7.33335C11.5872 7.33335 12.3333 8.07955 12.3333 8.99999H14.3333ZM10.6666 5.33335C8.64165 5.33335 7 6.97496 7 8.99999H9C9 8.07954 9.74621 7.33335 10.6666 7.33335V5.33335ZM7 8.99999C7 11.0251 8.64163 12.6667 10.6666 12.6667V10.6667C9.74622 10.6667 9 9.92052 9 8.99999H7ZM6.50001 19.1379C7.01915 17.3248 8.68879 16 10.6666 16V14C7.77249 14 5.33548 15.9392 4.57727 18.5874L6.50001 19.1379ZM10.6666 16C12.6445 16 14.3141 17.3247 14.8333 19.138L16.756 18.5874C15.9978 15.9392 13.5608 14 10.6666 14V16ZM10.6666 21.3333C16.5577 21.3333 21.3333 16.5577 21.3333 10.6667H19.3333C19.3333 15.4531 15.4532 19.3333 10.6666 19.3333V21.3333ZM21.3333 10.6667C21.3333 4.77564 16.5577 0 10.6666 0V2C15.4531 2 19.3333 5.8802 19.3333 10.6667H21.3333ZM10.6666 0C4.77563 0 0 4.77564 0 10.6667H2C2 5.8802 5.88021 2 10.6666 2V0ZM0 10.6667C0 16.5577 4.77564 21.3333 10.6666 21.3333V19.3333C5.8802 19.3333 2 15.4531 2 10.6667H0Z" fill="white"/>
</svg>
