<svg width="20" height="19" viewBox="0 0 20 19" fill="none" xmlns="http://www.w3.org/2000/svg">
<path d="M19.1587 3.29225C19.0298 2.98113 18.7254 2.7778 18.3887 2.7778H16.7221V1.11113C16.7221 0.774467 16.5187 0.470023 16.2076 0.341134C15.8965 0.211134 15.5376 0.283356 15.2998 0.522245L12.5221 3.30002C12.3654 3.45669 12.2776 3.66891 12.2776 3.88891V6.04336L8.91092 9.41002C8.58536 9.73558 8.58536 10.2634 8.91092 10.5889C9.07314 10.7511 9.28647 10.8334 9.49976 10.8334C9.71316 10.8334 9.92646 10.7522 10.0887 10.5889L13.4554 7.22225H15.6098C15.831 7.22225 16.0432 7.13447 16.1987 6.9778L18.9765 4.20002C19.2154 3.96225 19.2854 3.60336 19.1576 3.29225H19.1587Z" fill="#8162FF"/>
<path d="M9.49973 18.8889C4.59862 18.8889 0.61084 14.9011 0.61084 10C0.61084 4.55778 5.4964 0.196672 11.1653 1.27223C11.6176 1.35778 11.9153 1.79445 11.8298 2.24556C11.7442 2.69889 11.2998 2.99445 10.8553 2.90889C10.3931 2.82112 9.93756 2.77667 9.49973 2.77667C5.51751 2.77667 2.27751 6.01667 2.27751 9.99889C2.27751 13.9811 5.51751 17.2211 9.49973 17.2211C13.482 17.2211 16.722 13.9811 16.722 9.99889C16.722 9.55889 16.6776 9.10223 16.5909 8.64334C16.5042 8.19112 16.8009 7.75556 17.2531 7.6689C17.7064 7.58223 18.1409 7.8789 18.2276 8.33223C18.3353 8.89334 18.3898 9.45445 18.3898 9.99889C18.3898 14.9 14.402 18.8878 9.50086 18.8878L9.49973 18.8889Z" fill="#8162FF"/>
<path d="M9.49965 15.5556C6.43632 15.5556 3.9441 13.0633 3.9441 10C3.9441 6.93668 6.43632 4.44446 9.49965 4.44446C9.79076 4.44446 10.0697 4.48446 10.3486 4.52668C10.803 4.59668 11.1152 5.02224 11.0452 5.47668C10.9764 5.93224 10.5586 6.24668 10.0952 6.17335C9.89966 6.14335 9.70406 6.11001 9.50076 6.11001C7.35632 6.11001 5.61187 7.85446 5.61187 9.9989C5.61187 12.1433 7.35632 13.8878 9.50076 13.8878C11.6452 13.8878 13.3897 12.1433 13.3897 9.9989C13.3897 9.79557 13.3575 9.60112 13.3264 9.40557C13.2564 8.95112 13.5675 8.52557 14.0219 8.45446C14.4841 8.39001 14.903 8.69557 14.973 9.15001C15.0164 9.4289 15.0552 9.7089 15.0552 10C15.0552 13.0633 12.563 15.5556 9.49965 15.5556Z" fill="#8162FF"/>
</svg>
