<svg width="15" height="16" viewBox="0 0 15 16" fill="none" xmlns="http://www.w3.org/2000/svg">
<path d="M14.2162 0.74495C13.7492 0.41795 13.1502 0.33795 12.6132 0.53395L9.11319 1.80695C8.42419 2.05695 7.96119 2.71795 7.96119 3.45095V5.75095H9.21119C10.4522 5.75095 11.4612 6.75995 11.4612 8.00095C11.4612 9.24194 10.4522 10.2509 9.21119 10.2509H7.96119V12.5509C7.96119 13.2839 8.42419 13.9449 9.11319 14.1949L12.6132 15.4679C12.8072 15.5379 13.0092 15.5729 13.2102 15.5729C13.5652 15.5729 13.9172 15.4649 14.2152 15.2559C14.6822 14.9289 14.9612 14.3929 14.9612 13.8229V2.17795C14.9612 1.60795 14.6832 1.07195 14.2162 0.74495Z" fill="#969EA7"/>
<path d="M9.21219 7.24996H3.52218L5.74218 5.02996C6.03518 4.73696 6.03518 4.26196 5.74218 3.96896C5.44918 3.67596 4.97418 3.67596 4.68118 3.96896L1.18118 7.46896C0.888176 7.76196 0.888176 8.23696 1.18118 8.52996L4.68118 12.0299C4.82718 12.1759 5.01918 12.2499 5.21118 12.2499C5.40318 12.2499 5.59518 12.1769 5.74118 12.0299C6.03418 11.7369 6.03418 11.2619 5.74118 10.9689L3.52118 8.74896H9.21019C9.62419 8.74896 9.96019 8.41296 9.96019 7.99896C9.96019 7.58496 9.62419 7.24896 9.21019 7.24896L9.21219 7.24996Z" fill="#969EA7"/>
</svg>
