<svg width="21" height="20" viewBox="0 0 21 20" fill="white" xmlns="http://www.w3.org/2000/svg">
<path d="M6.32 17.5138L4.74334 18.0388L4.21667 19.6171C4.04667 20.1271 3.20167 20.1271 3.03167 19.6171L2.505 18.0388L0.92834 17.5138C0.67334 17.4288 0.5 17.1905 0.5 16.9205C0.5 16.6505 0.67334 16.4121 0.92834 16.3271L2.505 15.8021L3.03167 14.2238C3.11667 13.9688 3.355 13.7971 3.62334 13.7971C3.89167 13.7971 4.13167 13.9705 4.215 14.2238L4.74167 15.8021L6.31834 16.3271C6.57334 16.4121 6.74667 16.6505 6.74667 16.9205C6.74667 17.1905 6.57334 17.4288 6.31834 17.5138H6.32Z" fill="#969EA7"/>
<path d="M19.7099 8.0055L14.5399 5.96049L12.4949 0.790488C12.3065 0.313818 11.8449 0.000488281 11.3332 0.000488281C10.8215 0.000488281 10.3599 0.313818 10.1715 0.790488L8.12651 5.96049L2.95651 8.0055C2.47984 8.1938 2.16651 8.6555 2.16651 9.1672C2.16651 9.6788 2.47984 10.1405 2.95651 10.3288L8.12651 12.3738L10.1715 17.5438C10.3599 18.0205 10.8215 18.3338 11.3332 18.3338C11.8449 18.3338 12.3065 18.0205 12.4949 17.5438L14.5399 12.3738L19.7099 10.3288C20.1865 10.1405 20.4999 9.6788 20.4999 9.1672C20.4999 8.6555 20.1865 8.1938 19.7099 8.0055Z" fill="#969EA7"/>
</svg>
