<svg width="137" height="19" viewBox="0 0 137 19" fill="none" xmlns="http://www.w3.org/2000/svg">
<path d="M12.9283 2.71384C13.0169 2.78769 13.076 2.89108 13.1055 3.024C13.1498 3.15692 13.172 3.34892 13.172 3.6V4.22031C13.172 4.47138 13.1498 4.66338 13.1055 4.79631C13.076 4.92923 13.0169 5.03261 12.9283 5.10646C12.7511 5.25415 12.4557 5.328 12.0422 5.328H8.69692V17.0031C8.69692 17.3723 8.60831 17.6382 8.43108 17.8006C8.35723 17.8745 8.24646 17.9262 8.09877 17.9557C7.95108 17.9852 7.70738 18 7.36769 18H6.76954C6.41508 18 6.164 17.9852 6.01631 17.9557C5.86862 17.9262 5.75046 17.8671 5.66185 17.7785C5.51415 17.6308 5.44031 17.3723 5.44031 17.0031V5.328H2.09508C1.68154 5.328 1.38615 5.25415 1.20892 5.10646C1.12031 5.03261 1.05385 4.92923 1.00954 4.79631C0.98 4.66338 0.965231 4.47138 0.965231 4.22031V3.6C0.965231 3.34892 0.98 3.15692 1.00954 3.024C1.05385 2.89108 1.12031 2.78769 1.20892 2.71384C1.38615 2.56615 1.68154 2.49231 2.09508 2.49231H12.0422C12.4557 2.49231 12.7511 2.56615 12.9283 2.71384ZM16.567 18C16.2126 18 15.9541 17.9778 15.7916 17.9335C15.6439 17.8892 15.5258 17.8228 15.4372 17.7342C15.3486 17.6455 15.2821 17.5422 15.2378 17.424C15.2083 17.3058 15.1935 17.136 15.1935 16.9145V7.36615C15.1935 7.12985 15.2083 6.96 15.2378 6.85661C15.2821 6.73846 15.3486 6.63508 15.4372 6.54646C15.511 6.47261 15.6218 6.41354 15.7695 6.36923C15.9319 6.32492 16.1978 6.30277 16.567 6.30277H16.855C17.2243 6.30277 17.4827 6.32492 17.6304 6.36923C17.7929 6.39877 17.9184 6.45785 18.007 6.54646C18.1843 6.69415 18.2729 6.97477 18.2729 7.38831V16.9145C18.2729 17.328 18.1843 17.6086 18.007 17.7563C17.9184 17.8449 17.7929 17.9114 17.6304 17.9557C17.4827 17.9852 17.2243 18 16.855 18H16.567ZM16.7443 4.70769C16.2421 4.70769 15.8212 4.54523 15.4815 4.22031C15.1418 3.88061 14.9719 3.45969 14.9719 2.95754C14.9719 2.48492 15.1418 2.08615 15.4815 1.76123C15.8212 1.43631 16.2421 1.27384 16.7443 1.27384C17.2464 1.27384 17.6673 1.43631 18.007 1.76123C18.3467 2.08615 18.5166 2.48492 18.5166 2.95754C18.5166 3.45969 18.3467 3.88061 18.007 4.22031C17.6821 4.54523 17.2612 4.70769 16.7443 4.70769ZM26.9068 18.288C25.7104 18.288 24.6544 18.0295 23.7388 17.5126C22.8231 16.9809 22.1141 16.2498 21.612 15.3194C21.1098 14.3889 20.8588 13.3329 20.8588 12.1514C20.8588 10.9698 21.1098 9.91385 21.612 8.98338C22.1141 8.05292 22.8231 7.32923 23.7388 6.81231C24.6544 6.28061 25.7104 6.01477 26.9068 6.01477C28.8563 6.01477 30.3701 6.64985 31.4483 7.92C31.788 8.31877 31.9578 8.62154 31.9578 8.82831C31.9578 9.00554 31.8988 9.16061 31.7806 9.29354C31.6624 9.41169 31.4335 9.56677 31.0938 9.75877C30.5326 10.0689 30.1264 10.224 29.8754 10.224C29.7424 10.224 29.6095 10.1797 29.4766 10.0911C29.3584 9.98769 29.2034 9.82523 29.0114 9.60369C28.4944 9.02769 27.8003 8.73969 26.9289 8.73969C26.0428 8.73969 25.3338 9.05723 24.8021 9.69231C24.2704 10.3126 24.0046 11.1249 24.0046 12.1292C24.0046 13.1778 24.2704 14.0197 24.8021 14.6548C25.3338 15.2751 26.0428 15.5852 26.9289 15.5852C27.3572 15.5852 27.7264 15.5188 28.0366 15.3858C28.3615 15.2529 28.6717 15.0388 28.9671 14.7434C29.2477 14.4628 29.4544 14.2708 29.5874 14.1674C29.7351 14.064 29.8828 14.0123 30.0304 14.0123C30.1634 14.0123 30.3037 14.0492 30.4514 14.1231C30.6138 14.1969 30.8058 14.3003 31.0274 14.4332C31.3966 14.6548 31.6477 14.8468 31.7806 15.0092C31.9135 15.1717 31.98 15.3268 31.98 15.4745C31.98 15.7403 31.7363 16.1169 31.2489 16.6043C30.7172 17.1508 30.0748 17.5717 29.3215 17.8671C28.5831 18.1477 27.7781 18.288 26.9068 18.288ZM44.9295 16.7815C45.1511 17.0622 45.2618 17.2985 45.2618 17.4905C45.2618 17.8302 44.9074 18 44.1985 18H43.3566C42.8397 18 42.4705 17.9557 42.2489 17.8671C42.0569 17.7932 41.8206 17.5865 41.54 17.2468L37.508 12.24V16.9145C37.508 17.328 37.4194 17.6086 37.2422 17.7563C37.1535 17.8449 37.028 17.9114 36.8655 17.9557C36.7178 17.9852 36.4594 18 36.0902 18H35.8022C35.4477 18 35.1892 17.9778 35.0268 17.9335C34.8791 17.8892 34.7609 17.8228 34.6723 17.7342C34.5837 17.6455 34.5172 17.5422 34.4729 17.424C34.4434 17.3058 34.4286 17.136 34.4286 16.9145V2.91323C34.4286 2.67692 34.4434 2.50708 34.4729 2.40369C34.5172 2.28554 34.5837 2.18215 34.6723 2.09354C34.7609 2.00492 34.8791 1.93846 35.0268 1.89415C35.1892 1.84984 35.4477 1.82769 35.8022 1.82769H36.0902C36.4594 1.82769 36.7178 1.84984 36.8655 1.89415C37.028 1.92369 37.1535 1.98277 37.2422 2.07138C37.4194 2.21908 37.508 2.49969 37.508 2.91323V11.1766L41.0526 7.14461C41.3775 6.77538 41.6655 6.53908 41.9166 6.43569C42.0495 6.37661 42.212 6.33969 42.404 6.32492C42.6108 6.31015 42.8545 6.30277 43.1351 6.30277H43.7111C44.4938 6.30277 44.8852 6.46523 44.8852 6.79015C44.8852 6.90831 44.8557 7.01908 44.7966 7.12246C44.7523 7.22585 44.6563 7.35138 44.5086 7.49908L40.6538 11.5754L44.9295 16.7815ZM57.8363 15.3858C57.9102 15.4597 57.9619 15.5631 57.9914 15.696C58.0357 15.8142 58.0579 15.9914 58.0579 16.2277V16.9366C58.0579 17.1729 58.0357 17.3575 57.9914 17.4905C57.9619 17.6086 57.9102 17.7046 57.8363 17.7785C57.6887 17.9262 57.3342 18 56.773 18H48.0443C47.7047 18 47.461 17.9778 47.3133 17.9335C47.1803 17.8892 47.0696 17.8154 46.981 17.712C46.8333 17.5348 46.7594 17.232 46.7594 16.8037C46.7594 15.6074 47.1508 14.5366 47.9336 13.5914C48.7163 12.6314 49.824 11.6418 51.2567 10.6228L52.6302 9.648C53.4425 9.072 54.0037 8.592 54.3139 8.208C54.624 7.80923 54.7791 7.344 54.7791 6.81231C54.7791 6.17723 54.5797 5.68984 54.181 5.35015C53.7822 5.01046 53.1914 4.84061 52.4087 4.84061C51.3896 4.84061 50.5847 5.25415 49.9939 6.08123C49.9643 6.12554 49.8831 6.23631 49.7502 6.41354C49.632 6.59077 49.5139 6.72369 49.3957 6.81231C49.2923 6.88615 49.189 6.92308 49.0856 6.92308C48.7902 6.92308 48.421 6.82708 47.9779 6.63508C47.5939 6.47261 47.328 6.32492 47.1803 6.192C47.0474 6.04431 46.981 5.85969 46.981 5.63815C46.981 5.44615 47.0843 5.17292 47.2911 4.81846C47.8523 3.91754 48.5908 3.24554 49.5065 2.80246C50.437 2.35938 51.4634 2.13785 52.5859 2.13785C54.24 2.13785 55.5471 2.55877 56.5071 3.40061C57.4671 4.24246 57.9471 5.37969 57.9471 6.81231C57.9471 7.80185 57.6443 8.71015 57.0388 9.53723C56.448 10.3495 55.5102 11.1914 54.2253 12.0628L52.8517 12.9932C52.1871 13.4363 51.6776 13.8277 51.3231 14.1674C50.9687 14.5071 50.7102 14.8394 50.5477 15.1643H56.773C57.3342 15.1643 57.6887 15.2382 57.8363 15.3858ZM75.6864 9.60369C75.775 9.69231 75.8415 9.82523 75.8858 10.0025C75.9301 10.1797 75.9523 10.4529 75.9523 10.8222V11.1545C75.9523 12.7052 75.6421 14.0271 75.0218 15.12C74.4163 16.2129 73.5596 17.0326 72.4519 17.5791C71.3443 18.1255 70.0667 18.3988 68.6193 18.3988C67.039 18.3988 65.6286 18.0443 64.3879 17.3354C63.1473 16.6265 62.1873 15.6591 61.5079 14.4332C60.8286 13.1926 60.4889 11.8117 60.4889 10.2905C60.4889 8.76923 60.8212 7.38831 61.4858 6.14769C62.1504 4.89231 63.103 3.90277 64.3436 3.17908C65.5843 2.45538 67.0464 2.09354 68.7301 2.09354C71.2852 2.09354 73.2716 2.93538 74.6895 4.61908C74.9701 4.944 75.1104 5.22461 75.1104 5.46092C75.1104 5.85969 74.815 6.22154 74.2243 6.54646C73.663 6.85661 73.2347 7.01169 72.9393 7.01169C72.7916 7.01169 72.6513 6.97477 72.5184 6.90092C72.4003 6.82708 72.2673 6.69415 72.1196 6.50215C71.7209 6 71.2409 5.616 70.6796 5.35015C70.1332 5.08431 69.4833 4.95138 68.7301 4.95138C67.0907 4.95138 65.8649 5.43877 65.0526 6.41354C64.255 7.38831 63.8563 8.68061 63.8563 10.2905C63.8563 11.856 64.2772 13.1262 65.119 14.1009C65.9756 15.0609 67.1719 15.5409 68.7079 15.5409C71.2039 15.5409 72.5332 14.3742 72.6956 12.0406H70.5024C70.0889 12.0406 69.7861 11.9594 69.5941 11.7969C69.4464 11.6492 69.3726 11.3982 69.3726 11.0437V10.3348C69.3726 9.98031 69.4538 9.72185 69.6163 9.55938C69.6901 9.48554 69.7935 9.43385 69.9264 9.40431C70.0593 9.36 70.2513 9.33785 70.5024 9.33785H74.6895C74.9701 9.33785 75.1843 9.36 75.3319 9.40431C75.4796 9.44861 75.5978 9.51508 75.6864 9.60369ZM89.074 12.6166C88.9263 12.7495 88.7269 12.8455 88.4759 12.9046C88.2248 12.9489 87.8703 12.9711 87.4125 12.9711H81.2094C81.3571 13.8129 81.7411 14.4702 82.3614 14.9428C82.9817 15.4006 83.7793 15.6295 84.754 15.6295C85.5073 15.6295 86.3269 15.3932 87.2131 14.9206C87.4199 14.8172 87.5971 14.7655 87.7448 14.7655C87.9073 14.7655 88.0549 14.8246 88.1879 14.9428C88.3208 15.0462 88.4759 15.2234 88.6531 15.4745C88.9042 15.8437 89.0297 16.1391 89.0297 16.3606C89.0297 16.656 88.7565 16.9809 88.21 17.3354C87.7817 17.616 87.2205 17.8449 86.5263 18.0222C85.8322 18.1994 85.0937 18.288 84.3109 18.288C83.0999 18.288 82.0217 18.0369 81.0765 17.5348C80.1313 17.0326 79.3928 16.3163 78.8611 15.3858C78.3294 14.4406 78.0636 13.3403 78.0636 12.0849C78.0636 10.9034 78.2925 9.85477 78.7503 8.93908C79.2229 8.02338 79.9023 7.30708 80.7885 6.79015C81.6746 6.27323 82.7159 6.01477 83.9122 6.01477C85.0642 6.01477 86.0537 6.25108 86.8808 6.72369C87.7079 7.19631 88.3356 7.83138 88.7639 8.62892C89.1922 9.42646 89.4063 10.3126 89.4063 11.2874C89.4063 11.6418 89.3768 11.9225 89.3177 12.1292C89.2734 12.336 89.1922 12.4985 89.074 12.6166ZM83.89 8.54031C83.1073 8.54031 82.4869 8.75446 82.0291 9.18277C81.5713 9.59631 81.2906 10.1871 81.1873 10.9551H86.4377C86.3786 10.1871 86.1276 9.59631 85.6845 9.18277C85.2414 8.75446 84.6433 8.54031 83.89 8.54031ZM99.1399 16.56C99.1695 16.7963 99.1843 16.9957 99.1843 17.1582C99.1843 17.4092 99.1326 17.6012 99.0292 17.7342C98.9406 17.8523 98.7707 17.9483 98.5196 18.0222C97.9879 18.1551 97.4341 18.2215 96.8581 18.2215C95.2926 18.2215 94.207 17.8671 93.6015 17.1582C92.9959 16.4492 92.6932 15.408 92.6932 14.0345V8.784H91.8735C91.3123 8.784 90.9578 8.71015 90.8101 8.56246C90.7363 8.48861 90.6772 8.39261 90.6329 8.27446C90.6033 8.14154 90.5886 7.95692 90.5886 7.72061V7.36615C90.5886 7.12985 90.6033 6.95261 90.6329 6.83446C90.6772 6.70154 90.7363 6.59815 90.8101 6.52431C90.9578 6.37662 91.3123 6.30277 91.8735 6.30277H92.6932V3.82154C92.6932 3.58523 92.7079 3.41538 92.7375 3.312C92.7818 3.19385 92.8483 3.09046 92.9369 3.00184C93.0255 2.91323 93.1436 2.84677 93.2913 2.80246C93.4538 2.75815 93.7123 2.736 94.0667 2.736H94.3547C94.7239 2.736 94.9824 2.75815 95.1301 2.80246C95.2926 2.832 95.4181 2.89108 95.5067 2.97969C95.6839 3.12738 95.7726 3.408 95.7726 3.82154V6.30277H97.5449C98.1061 6.30277 98.4606 6.37662 98.6083 6.52431C98.6821 6.59815 98.7338 6.70154 98.7633 6.83446C98.8076 6.95261 98.8298 7.12985 98.8298 7.36615V7.72061C98.8298 7.95692 98.8076 8.14154 98.7633 8.27446C98.7338 8.39261 98.6821 8.48861 98.6083 8.56246C98.4606 8.71015 98.1061 8.784 97.5449 8.784H95.7726V13.6357C95.7726 14.9945 96.3781 15.6738 97.5892 15.6738C97.7664 15.6738 97.9289 15.6591 98.0766 15.6295C98.239 15.6 98.3719 15.5852 98.4753 15.5852C98.6821 15.5852 98.8298 15.6591 98.9184 15.8068C99.0218 15.9545 99.0956 16.2055 99.1399 16.56ZM108.115 6.01477C109.4 6.01477 110.412 6.44308 111.15 7.29969C111.889 8.15631 112.258 9.34523 112.258 10.8665V16.9145C112.258 17.328 112.169 17.6086 111.992 17.7563C111.904 17.8449 111.778 17.9114 111.616 17.9557C111.468 17.9852 111.209 18 110.84 18H110.552C110.198 18 109.939 17.9778 109.777 17.9335C109.629 17.8892 109.511 17.8228 109.422 17.7342C109.334 17.6455 109.267 17.5422 109.223 17.424C109.193 17.3058 109.179 17.136 109.179 16.9145V11.376C109.179 10.4603 108.994 9.78092 108.625 9.33785C108.256 8.88 107.687 8.65108 106.919 8.65108C106.136 8.65108 105.531 8.90954 105.102 9.42646C104.674 9.92861 104.46 10.6523 104.46 11.5975V16.9145C104.46 17.328 104.371 17.6086 104.194 17.7563C104.105 17.8449 103.98 17.9114 103.817 17.9557C103.67 17.9852 103.411 18 103.042 18H102.754C102.4 18 102.141 17.9778 101.979 17.9335C101.831 17.8892 101.713 17.8228 101.624 17.7342C101.536 17.6455 101.469 17.5422 101.425 17.424C101.395 17.3058 101.381 17.136 101.381 16.9145V2.91323C101.381 2.67692 101.395 2.50708 101.425 2.40369C101.469 2.28554 101.536 2.18215 101.624 2.09354C101.713 2.00492 101.831 1.93846 101.979 1.89415C102.141 1.84984 102.4 1.82769 102.754 1.82769H103.042C103.411 1.82769 103.67 1.84984 103.817 1.89415C103.98 1.92369 104.105 1.98277 104.194 2.07138C104.371 2.21908 104.46 2.49969 104.46 2.91323V8.07508C104.77 7.42523 105.243 6.92308 105.878 6.56861C106.513 6.19938 107.259 6.01477 108.115 6.01477ZM125.758 12.6166C125.61 12.7495 125.411 12.8455 125.16 12.9046C124.908 12.9489 124.554 12.9711 124.096 12.9711H117.893C118.041 13.8129 118.425 14.4702 119.045 14.9428C119.665 15.4006 120.463 15.6295 121.438 15.6295C122.191 15.6295 123.011 15.3932 123.897 14.9206C124.104 14.8172 124.281 14.7655 124.428 14.7655C124.591 14.7655 124.739 14.8246 124.872 14.9428C125.004 15.0462 125.16 15.2234 125.337 15.4745C125.588 15.8437 125.713 16.1391 125.713 16.3606C125.713 16.656 125.44 16.9809 124.894 17.3354C124.465 17.616 123.904 17.8449 123.21 18.0222C122.516 18.1994 121.777 18.288 120.995 18.288C119.784 18.288 118.705 18.0369 117.76 17.5348C116.815 17.0326 116.076 16.3163 115.545 15.3858C115.013 14.4406 114.747 13.3403 114.747 12.0849C114.747 10.9034 114.976 9.85477 115.434 8.93908C115.907 8.02338 116.586 7.30708 117.472 6.79015C118.358 6.27323 119.4 6.01477 120.596 6.01477C121.748 6.01477 122.737 6.25108 123.564 6.72369C124.392 7.19631 125.019 7.83138 125.448 8.62892C125.876 9.42646 126.09 10.3126 126.09 11.2874C126.09 11.6418 126.06 11.9225 126.001 12.1292C125.957 12.336 125.876 12.4985 125.758 12.6166ZM120.574 8.54031C119.791 8.54031 119.171 8.75446 118.713 9.18277C118.255 9.59631 117.974 10.1871 117.871 10.9551H123.121C123.062 10.1871 122.811 9.59631 122.368 9.18277C121.925 8.75446 121.327 8.54031 120.574 8.54031ZM135.974 6.36923C136.166 6.50215 136.262 6.72369 136.262 7.03385C136.262 7.66892 136.196 8.21538 136.063 8.67323C136.004 8.85046 135.93 8.976 135.841 9.04985C135.752 9.10892 135.62 9.13846 135.442 9.13846C135.309 9.13846 135.147 9.13108 134.955 9.11631C134.778 9.10154 134.564 9.09415 134.312 9.09415C133.471 9.09415 132.828 9.38954 132.385 9.98031C131.942 10.5563 131.72 11.3834 131.72 12.4615V16.9145C131.72 17.328 131.632 17.6086 131.455 17.7563C131.366 17.8449 131.24 17.9114 131.078 17.9557C130.93 17.9852 130.672 18 130.303 18H130.015C129.66 18 129.402 17.9778 129.239 17.9335C129.092 17.8892 128.973 17.8228 128.885 17.7342C128.796 17.6455 128.73 17.5422 128.685 17.424C128.656 17.3058 128.641 17.136 128.641 16.9145V7.38831C128.641 7.152 128.656 6.98215 128.685 6.87877C128.73 6.76061 128.796 6.65723 128.885 6.56861C128.973 6.48 129.092 6.41354 129.239 6.36923C129.402 6.32492 129.66 6.30277 130.015 6.30277H130.303C130.672 6.30277 130.93 6.32492 131.078 6.36923C131.24 6.39877 131.366 6.45785 131.455 6.54646C131.632 6.69415 131.72 6.97477 131.72 7.38831V8.73969C132.237 7.01169 133.271 6.14769 134.822 6.14769C135.368 6.14769 135.752 6.22154 135.974 6.36923Z" fill="#54595D"/>
<path d="M13.1055 3.024L12.7453 3.10414L12.7494 3.12274L12.7555 3.14081L13.1055 3.024ZM13.1055 4.79631L12.7555 4.6796L12.7494 4.69767L12.7453 4.71626L13.1055 4.79631ZM8.69692 5.328L8.69711 4.95882H8.32788V5.32805L8.69692 5.328ZM8.43108 17.8006L8.18177 17.5285L8.17585 17.5339L8.17018 17.5395L8.43108 17.8006ZM5.44031 5.328L5.80973 5.32805V4.95882H5.4405L5.44031 5.328ZM1.00954 4.79631L0.649291 4.87645L0.653423 4.89505L0.659446 4.91312L1.00954 4.79631ZM1.00954 3.024L0.659446 2.90729L0.653423 2.92536L0.649291 2.94395L1.00954 3.024ZM12.6921 2.99755C12.7072 3.01012 12.7302 3.036 12.7453 3.10414L13.4662 2.94395C13.4222 2.74625 13.327 2.56536 13.1649 2.43024L12.6921 2.99755ZM12.7555 3.14081C12.781 3.21741 12.803 3.36247 12.803 3.60005H13.5414C13.5414 3.33547 13.5191 3.09653 13.456 2.90729L12.7555 3.14081ZM12.803 3.60005V4.22036H13.5414V3.60005H12.803ZM12.803 4.22036C12.803 4.45793 12.781 4.60299 12.7555 4.6796L13.456 4.91312C13.5191 4.72387 13.5414 4.48493 13.5414 4.22036H12.803ZM12.7453 4.71626C12.7302 4.7844 12.7072 4.81029 12.6921 4.82286L13.1649 5.39016C13.327 5.25504 13.4222 5.07416 13.4662 4.87645L12.7453 4.71626ZM12.6921 4.82286C12.6166 4.88584 12.4306 4.95882 12.0424 4.95882V5.69728C12.4812 5.69728 12.886 5.62256 13.1649 5.39016L12.6921 4.82286ZM12.0424 4.95882H8.69711V5.69728H12.0424V4.95882ZM8.32788 5.32805V17.0031H9.06634V5.32805H8.32788ZM8.32788 17.0031C8.32788 17.3238 8.24988 17.4661 8.18177 17.5285L8.68077 18.0728C8.96711 17.8103 9.06634 17.4208 9.06634 17.0031H8.32788ZM8.17018 17.5395C8.16599 17.5437 8.13287 17.5724 8.02655 17.5936L8.17137 18.3179C8.36043 18.28 8.54885 18.2053 8.69235 18.0618L8.17018 17.5395ZM8.02655 17.5936C7.91764 17.6154 7.70578 17.6308 7.36788 17.6308V18.3692C7.70937 18.3692 7.98489 18.3551 8.17137 18.3179L8.02655 17.5936ZM7.36788 17.6308H6.76973V18.3692H7.36788V17.6308ZM6.76973 17.6308C6.41584 17.6308 6.1973 17.6153 6.08891 17.5936L5.94409 18.3179C6.13108 18.3553 6.41469 18.3692 6.76973 18.3692V17.6308ZM6.08891 17.5936C5.99806 17.5755 5.95056 17.5449 5.92312 17.5175L5.40095 18.0395C5.55074 18.1893 5.73955 18.2769 5.94409 18.3179L6.08891 17.5936ZM5.92312 17.5175C5.88174 17.4761 5.80973 17.3436 5.80973 17.0031H5.07127C5.07127 17.401 5.14695 17.7855 5.40095 18.0395L5.92312 17.5175ZM5.80973 17.0031V5.32805H5.07127V17.0031H5.80973ZM5.4405 4.95882H2.09527V5.69728H5.4405V4.95882ZM2.09527 4.95882C1.70702 4.95882 1.52107 4.88584 1.44549 4.82286L0.972738 5.39016C1.25162 5.62256 1.65644 5.69728 2.09527 5.69728V4.95882ZM1.44549 4.82286C1.41994 4.80156 1.38729 4.76141 1.36001 4.6796L0.659446 4.91312C0.72079 5.09715 0.821062 5.26377 0.972738 5.39016L1.44549 4.82286ZM1.37017 4.71626C1.34945 4.62304 1.33465 4.46301 1.33465 4.22036H0.596191C0.596191 4.47986 0.61093 4.70383 0.649291 4.87645L1.37017 4.71626ZM1.33465 4.22036V3.60005H0.596191V4.22036H1.33465ZM1.33465 3.60005C1.33465 3.3574 1.34945 3.19736 1.37017 3.10415L0.649291 2.94395C0.61093 3.11658 0.596191 3.34055 0.596191 3.60005H1.33465ZM1.36001 3.14081C1.38729 3.05899 1.41994 3.01884 1.44549 2.99755L0.972738 2.43024C0.821062 2.55664 0.72079 2.72326 0.659446 2.90729L1.36001 3.14081ZM1.44549 2.99755C1.52107 2.93456 1.70702 2.86159 2.09527 2.86159V2.12313C1.65644 2.12313 1.25162 2.19784 0.972738 2.43024L1.44549 2.99755ZM2.09527 2.86159H12.0424V2.12313H2.09527V2.86159ZM12.0424 2.86159C12.4306 2.86159 12.6166 2.93456 12.6921 2.99755L13.1649 2.43024C12.886 2.19784 12.4812 2.12313 12.0424 2.12313V2.86159ZM15.7916 17.9335L15.6857 18.2873L15.6947 18.2899L15.7916 17.9335ZM15.2378 17.424L14.8798 17.5136L14.8849 17.534L14.8923 17.5536L15.2378 17.424ZM15.2378 6.85661L14.8923 6.72702L14.887 6.74094L14.883 6.75523L15.2378 6.85661ZM15.7695 6.36923L15.6725 6.01295L15.6636 6.01562L15.7695 6.36923ZM17.6304 6.36923L17.5245 6.72294L17.5443 6.72887L17.5646 6.73255L17.6304 6.36923ZM18.007 6.54646L17.7461 6.8076L17.758 6.81944L17.7708 6.83016L18.007 6.54646ZM18.007 17.7563L17.7708 17.4727L17.758 17.4834L17.7461 17.4952L18.007 17.7563ZM17.6304 17.9557L17.703 18.3179L17.7155 18.3153L17.7278 18.3119L17.6304 17.9557ZM15.4815 4.22031L15.2205 4.48151L15.2265 4.48718L15.4815 4.22031ZM16.5672 17.6308C16.2177 17.6308 16.001 17.6079 15.889 17.5773L15.6947 18.2899C15.9076 18.3479 16.2078 18.3692 16.5672 18.3692V17.6308ZM15.8979 17.58C15.7955 17.5492 15.735 17.5097 15.6985 17.4732L15.1763 17.9952C15.317 18.1359 15.4928 18.2294 15.6857 18.2873L15.8979 17.58ZM15.6985 17.4732C15.6474 17.4221 15.6096 17.3635 15.5837 17.2944L14.8923 17.5536C14.955 17.7208 15.0501 17.8691 15.1763 17.9952L15.6985 17.4732ZM15.5962 17.3344C15.5777 17.2603 15.5629 17.1261 15.5629 16.9145H14.8245C14.8245 17.1459 14.8392 17.3514 14.8798 17.5136L15.5962 17.3344ZM15.5629 16.9145V7.3662H14.8245V16.9145H15.5629ZM15.5629 7.3662C15.5629 7.13329 15.5787 7.00814 15.593 6.9581L14.883 6.75523C14.8382 6.91196 14.8245 7.1265 14.8245 7.3662H15.5629ZM15.5837 6.98631C15.6096 6.91716 15.6474 6.85868 15.6985 6.8076L15.1763 6.28542C15.0501 6.41158 14.9549 6.55987 14.8923 6.72702L15.5837 6.98631ZM15.6985 6.8076C15.7134 6.79268 15.7608 6.75744 15.8758 6.72294L15.6636 6.01562C15.4832 6.06974 15.3091 6.15264 15.1763 6.28542L15.6985 6.8076ZM15.8668 6.7255C15.9782 6.69514 16.2014 6.67205 16.5672 6.67205V5.93359C16.1946 5.93359 15.8861 5.9547 15.6725 6.01295L15.8668 6.7255ZM16.5672 6.67205H16.8552V5.93359H16.5672V6.67205ZM16.8552 6.67205C17.2246 6.67205 17.434 6.6958 17.5245 6.72294L17.7367 6.01562C17.5318 5.95415 17.2243 5.93359 16.8552 5.93359V6.67205ZM17.5646 6.73255C17.6763 6.75287 17.7252 6.78662 17.7461 6.8076L18.2683 6.28542C18.1121 6.12917 17.9098 6.04476 17.6967 6.006L17.5646 6.73255ZM17.7708 6.83016C17.8166 6.86832 17.9038 7.00265 17.9038 7.38836H18.6423C18.6423 6.94699 18.5523 6.52008 18.2436 6.26286L17.7708 6.83016ZM17.9038 7.38836V16.9145H18.6423V7.38836H17.9038ZM17.9038 16.9145C17.9038 17.3002 17.8166 17.4345 17.7708 17.4727L18.2436 18.0401C18.5523 17.7828 18.6423 17.3558 18.6423 16.9145H17.9038ZM17.7461 17.4952C17.7159 17.5254 17.6544 17.5666 17.5335 17.5996L17.7278 18.3119C17.9317 18.2563 18.1213 18.1645 18.2683 18.0175L17.7461 17.4952ZM17.5582 17.5936C17.4503 17.6152 17.225 17.6308 16.8552 17.6308V18.3692C17.2239 18.3692 17.5155 18.3553 17.703 18.3179L17.5582 17.5936ZM16.8552 17.6308H16.5672V18.3692H16.8552V17.6308ZM16.7445 4.33851C16.3302 4.33851 16.0029 4.20796 15.7369 3.95353L15.2265 4.48718C15.6399 4.8826 16.1543 5.07697 16.7445 5.07697V4.33851ZM15.7428 3.95927C15.4757 3.69224 15.3414 3.36676 15.3414 2.95759H14.6029C14.6029 3.55273 14.8081 4.06916 15.2205 4.48151L15.7428 3.95927ZM15.3414 2.95759C15.3414 2.58513 15.4705 2.28294 15.7369 2.0281L15.2265 1.49446C14.8135 1.88946 14.6029 2.38482 14.6029 2.95759H15.3414ZM15.7369 2.0281C16.0029 1.77368 16.3302 1.64312 16.7445 1.64312V0.904663C16.1543 0.904663 15.6399 1.09903 15.2265 1.49446L15.7369 2.0281ZM16.7445 1.64312C17.1587 1.64312 17.486 1.77368 17.752 2.0281L18.2624 1.49446C17.849 1.09903 17.3346 0.904663 16.7445 0.904663V1.64312ZM17.752 2.0281C18.0184 2.28294 18.1475 2.58513 18.1475 2.95759H18.886C18.886 2.38482 18.6754 1.88946 18.2624 1.49446L17.752 2.0281ZM18.1475 2.95759C18.1475 3.36676 18.0132 3.69224 17.7461 3.95927L18.2683 4.48144C18.6807 4.06909 18.886 3.55273 18.886 2.95759H18.1475ZM17.7461 3.95927C17.4994 4.20605 17.1768 4.33851 16.7445 4.33851V5.07697C17.3459 5.07697 17.8652 4.88451 18.2683 4.48144L17.7461 3.95927ZM23.7388 17.5126L23.5535 17.8319L23.5574 17.8342L23.7388 17.5126ZM23.7388 6.81231L23.9205 7.13392L23.9244 7.13166L23.7388 6.81231ZM31.7806 9.29354L32.0419 9.55467L32.0496 9.547L32.0568 9.53889L31.7806 9.29354ZM31.0938 9.75877L31.2726 10.082L31.2757 10.0803L31.0938 9.75877ZM29.4766 10.0911L29.2337 10.369L29.2519 10.3849L29.272 10.3983L29.4766 10.0911ZM29.0114 9.60369L29.2906 9.36189L29.2864 9.35713L29.0114 9.60369ZM24.8021 9.69231L25.0827 9.93267L25.0854 9.92938L24.8021 9.69231ZM24.8021 14.6548L24.5192 14.8918L24.522 14.8951L24.8021 14.6548ZM28.0366 15.3858L27.897 15.0441L27.8914 15.0465L28.0366 15.3858ZM29.5874 14.1674L29.3758 13.8649L29.3682 13.8702L29.3609 13.8759L29.5874 14.1674ZM30.4514 14.1231L30.2863 14.4536L30.2988 14.4592L30.4514 14.1231ZM31.2489 16.6043L30.988 16.3432L30.9845 16.3468L31.2489 16.6043ZM29.3215 17.8671L29.4529 18.2122L29.4565 18.2108L29.3215 17.8671ZM26.907 17.9188C25.7654 17.9188 24.7735 17.6726 23.9205 17.1911L23.5574 17.8342C24.5358 18.3864 25.6559 18.6572 26.907 18.6572V17.9188ZM23.9244 17.1933C23.0675 16.6958 22.4069 16.0145 21.9371 15.144L21.2873 15.4948C21.8218 16.4852 22.5791 17.2661 23.5535 17.8319L23.9244 17.1933ZM21.9371 15.144C21.4673 14.2735 21.2282 13.279 21.2282 12.1514H20.4897C20.4897 13.3868 20.7527 14.5044 21.2873 15.4948L21.9371 15.144ZM21.2282 12.1514C21.2282 11.0238 21.4673 10.0293 21.9371 9.15879L21.2873 8.80807C20.7527 9.7985 20.4897 10.916 20.4897 12.1514H21.2282ZM21.9371 9.15879C22.4064 8.28925 23.0658 7.61642 23.9205 7.13392L23.5574 6.49082C22.5808 7.04217 21.8223 7.8167 21.2873 8.80807L21.9371 9.15879ZM23.9244 7.13166C24.7767 6.63674 25.7671 6.38405 26.907 6.38405V5.64559C25.6541 5.64559 24.5326 5.92459 23.5535 6.49305L23.9244 7.13166ZM26.907 6.38405C28.7685 6.38405 30.1712 6.9859 31.167 8.15899L31.73 7.68111C30.5694 6.31389 28.9445 5.64559 26.907 5.64559V6.38405ZM31.167 8.15899C31.3283 8.34835 31.4397 8.50401 31.5086 8.62685C31.5811 8.7561 31.5888 8.81761 31.5888 8.82836H32.3273C32.3273 8.63234 32.25 8.43908 32.1527 8.26556C32.0517 8.08563 31.9083 7.89051 31.73 7.68111L31.167 8.15899ZM31.5888 8.82836C31.5888 8.91481 31.5631 8.98269 31.5048 9.04829L32.0568 9.53889C32.2348 9.33864 32.3273 9.09636 32.3273 8.82836H31.5888ZM31.5197 9.0325C31.4405 9.11173 31.2512 9.24583 30.9123 9.43738L31.2757 10.0803C31.6162 9.88781 31.8848 9.71176 32.0419 9.55467L31.5197 9.0325ZM30.9154 9.43565C30.6435 9.58591 30.4181 9.69356 30.2368 9.7628C30.0496 9.83427 29.9347 9.85482 29.8756 9.85482V10.5933C30.0675 10.5933 30.2812 10.5363 30.5002 10.4527C30.725 10.3668 30.9833 10.2419 31.2726 10.082L30.9154 9.43565ZM29.8756 9.85482C29.8292 9.85482 29.7663 9.84037 29.6816 9.78391L29.272 10.3983C29.4531 10.5191 29.6561 10.5933 29.8756 10.5933V9.85482ZM29.7199 9.81325C29.6211 9.72681 29.4792 9.57957 29.2906 9.36189L28.7325 9.84556C28.9279 10.071 29.0961 10.2487 29.2337 10.369L29.7199 9.81325ZM29.2864 9.35713C28.6902 8.69281 27.8907 8.37051 26.9291 8.37051V9.10897C27.7103 9.10897 28.2991 9.36268 28.7368 9.85035L29.2864 9.35713ZM26.9291 8.37051C25.9424 8.37051 25.1265 8.73 24.5192 9.45533L25.0854 9.92938C25.5416 9.38456 26.1435 9.10897 26.9291 9.10897V8.37051ZM24.522 9.45206C23.9206 10.1537 23.6356 11.0578 23.6356 12.1292H24.374C24.374 11.1921 24.6207 10.4717 25.0827 9.93267L24.522 9.45206ZM23.6356 12.1292C23.6356 13.2409 23.9184 14.1742 24.5192 14.8918L25.0854 14.4177C24.6229 13.8652 24.374 13.1148 24.374 12.1292H23.6356ZM24.522 14.8951C25.1303 15.6047 25.9455 15.9545 26.9291 15.9545V15.216C26.1404 15.216 25.5378 14.9454 25.0827 14.4145L24.522 14.8951ZM26.9291 15.9545C27.3945 15.9545 27.8155 15.8824 28.1822 15.7252L27.8914 15.0465C27.6377 15.1552 27.3204 15.216 26.9291 15.216V15.9545ZM28.1766 15.7276C28.5547 15.5729 28.9048 15.3281 29.2283 15.0045L28.7062 14.4823C28.439 14.7495 28.1688 14.9329 27.897 15.0441L28.1766 15.7276ZM29.2283 15.0045C29.5087 14.7241 29.7012 14.5467 29.8143 14.4588L29.3609 13.8759C29.2081 13.9948 28.9871 14.2014 28.7062 14.4823L29.2283 15.0045ZM29.7993 14.4699C29.8988 14.4002 29.9741 14.3815 30.0306 14.3815V13.6431C29.7918 13.6431 29.5717 13.7278 29.3758 13.8649L29.7993 14.4699ZM30.0306 14.3815C30.094 14.3815 30.1778 14.3993 30.2863 14.4536L30.6167 13.7928C30.4299 13.6994 30.2331 13.6431 30.0306 13.6431V14.3815ZM30.2988 14.4592C30.4442 14.5253 30.6233 14.6212 30.8376 14.7498L31.2175 14.1166C30.9888 13.9794 30.7838 13.8685 30.6044 13.7869L30.2988 14.4592ZM30.8376 14.7498C31.2004 14.9675 31.4047 15.1327 31.495 15.243L32.0666 14.7754C31.891 14.5609 31.5932 14.342 31.2175 14.1166L30.8376 14.7498ZM31.495 15.243C31.5963 15.3668 31.611 15.4416 31.611 15.4745H32.3494C32.3494 15.2119 32.2312 14.9766 32.0666 14.7754L31.495 15.243ZM31.611 15.4745C31.611 15.5025 31.5943 15.5906 31.4874 15.7557C31.3851 15.9139 31.222 16.1092 30.988 16.3432L31.5102 16.8654C31.7636 16.612 31.966 16.3755 32.1074 16.1569C32.2442 15.9454 32.3494 15.7123 32.3494 15.4745H31.611ZM30.9845 16.3468C30.4916 16.8533 29.8943 17.2459 29.1869 17.5233L29.4565 18.2108C30.2556 17.8974 30.9432 17.4482 31.5137 16.8618L30.9845 16.3468ZM29.1906 17.5219C28.4981 17.7851 27.7381 17.9188 26.907 17.9188V18.6572C27.8185 18.6572 28.6684 18.5103 29.4529 18.2122L29.1906 17.5219ZM44.9295 16.7815L45.2196 16.5527L45.2151 16.5472L44.9295 16.7815ZM42.2489 17.8671L42.3863 17.5243L42.3817 17.5225L42.2489 17.8671ZM41.54 17.2468L41.2526 17.4784L41.2555 17.4819L41.54 17.2468ZM37.508 12.24L37.7958 12.0084L37.139 11.1928V12.24L37.508 12.24ZM37.2422 17.7563L37.006 17.4727L36.9931 17.4834L36.9813 17.4952L37.2422 17.7563ZM36.8655 17.9557L36.9382 18.3179L36.9506 18.3153L36.9629 18.3119L36.8655 17.9557ZM35.0268 17.9335L34.9208 18.2873L34.9298 18.2899L35.0268 17.9335ZM34.4729 17.424L34.1149 17.5136L34.12 17.534L34.1274 17.5536L34.4729 17.424ZM34.4729 2.40369L34.1274 2.27409L34.1222 2.28801L34.1181 2.30231L34.4729 2.40369ZM35.0268 1.89415L34.9298 1.53787L34.9209 1.54054L35.0268 1.89415ZM36.8655 1.89415L36.7596 2.24786L36.7794 2.25379L36.7997 2.25748L36.8655 1.89415ZM37.2422 2.07138L36.9813 2.33252L36.9931 2.34436L37.006 2.35508L37.2422 2.07138ZM37.508 11.1766L37.139 11.1767V12.1558L37.7855 11.4204L37.508 11.1766ZM41.9166 6.43569L42.0575 6.77729L42.0668 6.77315L41.9166 6.43569ZM42.404 6.32492L42.3779 5.95667L42.3759 5.95683L42.404 6.32492ZM44.7966 7.12246L44.4762 6.93932L44.4658 6.95766L44.4574 6.97707L44.7966 7.12246ZM44.5086 7.49908L44.2476 7.23794L44.2405 7.24543L44.5086 7.49908ZM40.6538 11.5754L40.3858 11.3217L40.1621 11.5582L40.3687 11.8097L40.6538 11.5754ZM44.6399 17.0103C44.8487 17.2747 44.8928 17.4275 44.8928 17.4905H45.6313C45.6313 17.1694 45.454 16.8496 45.2196 16.5527L44.6399 17.0103ZM44.8928 17.4905C44.8928 17.4956 44.8925 17.4993 44.8922 17.5014C44.8919 17.5035 44.8916 17.5043 44.8916 17.5044C44.8916 17.5044 44.8917 17.5041 44.892 17.5035C44.8923 17.5029 44.8925 17.5026 44.8925 17.5026C44.8924 17.5027 44.8918 17.5035 44.8903 17.5051C44.8888 17.5067 44.8862 17.5092 44.8821 17.5124C44.8738 17.5191 44.8595 17.5287 44.8366 17.5396C44.7346 17.5885 44.5354 17.6308 44.1987 17.6308V18.3692C44.5708 18.3692 44.9034 18.3266 45.1558 18.2057C45.2869 18.1429 45.4094 18.0526 45.4987 17.9242C45.5901 17.7928 45.6313 17.6433 45.6313 17.4905H44.8928ZM44.1987 17.6308H43.3568V18.3692H44.1987V17.6308ZM43.3568 17.6308C42.8449 17.6308 42.5373 17.5847 42.3863 17.5243L42.112 18.2099C42.404 18.3267 42.8349 18.3692 43.3568 18.3692V17.6308ZM42.3817 17.5225C42.2859 17.4856 42.1014 17.3464 41.8249 17.0117L41.2555 17.4819C41.5403 17.8266 41.8284 18.101 42.1166 18.2118L42.3817 17.5225ZM41.8278 17.0152L37.7958 12.0084L37.2206 12.4716L41.2526 17.4784L41.8278 17.0152ZM37.139 12.24V16.9145H37.8774V12.24H37.139ZM37.139 16.9145C37.139 17.3002 37.0518 17.4345 37.006 17.4727L37.4787 18.0401C37.7874 17.7828 37.8774 17.3558 37.8774 16.9145H37.139ZM36.9813 17.4952C36.9511 17.5254 36.8896 17.5666 36.7686 17.5996L36.9629 18.3119C37.1668 18.2563 37.3564 18.1645 37.5034 18.0175L36.9813 17.4952ZM36.7933 17.5936C36.6854 17.6152 36.4602 17.6308 36.0904 17.6308V18.3692C36.459 18.3692 36.7507 18.3553 36.9382 18.3179L36.7933 17.5936ZM36.0904 17.6308H35.8024V18.3692H36.0904V17.6308ZM35.8024 17.6308C35.4529 17.6308 35.2362 17.6079 35.1241 17.5773L34.9298 18.2899C35.1427 18.3479 35.4429 18.3692 35.8024 18.3692V17.6308ZM35.1331 17.58C35.0306 17.5492 34.9701 17.5097 34.9336 17.4732L34.4114 17.9952C34.5521 18.1359 34.7279 18.2294 34.9208 18.2873L35.1331 17.58ZM34.9336 17.4732C34.8825 17.4221 34.8448 17.3635 34.8188 17.2944L34.1274 17.5536C34.1901 17.7208 34.2853 17.8691 34.4114 17.9952L34.9336 17.4732ZM34.8313 17.3344C34.8128 17.2603 34.798 17.1261 34.798 16.9145H34.0596C34.0596 17.1459 34.0744 17.3514 34.1149 17.5136L34.8313 17.3344ZM34.798 16.9145V2.91328H34.0596V16.9145H34.798ZM34.798 2.91328C34.798 2.68036 34.8139 2.55522 34.8281 2.50518L34.1181 2.30231C34.0733 2.45903 34.0596 2.67358 34.0596 2.91328H34.798ZM34.8188 2.53339C34.8448 2.46423 34.8825 2.40575 34.9336 2.35467L34.4114 1.8325C34.2853 1.95865 34.1901 2.10694 34.1274 2.27409L34.8188 2.53339ZM34.9336 2.35467C34.9701 2.31813 35.0306 2.27861 35.1331 2.24786L34.9209 1.54054C34.728 1.59841 34.5521 1.69181 34.4114 1.8325L34.9336 2.35467ZM35.1241 2.25042C35.2362 2.21987 35.4529 2.19697 35.8024 2.19697V1.45851C35.4429 1.45851 35.1427 1.47981 34.9298 1.53787L35.1241 2.25042ZM35.8024 2.19697H36.0904V1.45851H35.8024V2.19697ZM36.0904 2.19697C36.4597 2.19697 36.6692 2.22072 36.7596 2.24786L36.9718 1.54054C36.7669 1.47907 36.4594 1.45851 36.0904 1.45851V2.19697ZM36.7997 2.25748C36.9115 2.2778 36.9603 2.31154 36.9813 2.33252L37.5034 1.81035C37.3472 1.6541 37.145 1.56968 36.9318 1.53093L36.7997 2.25748ZM37.006 2.35508C37.0518 2.39325 37.139 2.52757 37.139 2.91328H37.8774C37.8774 2.47191 37.7874 2.04501 37.4787 1.78778L37.006 2.35508ZM37.139 2.91328V11.1767H37.8774V2.91328H37.139ZM37.7855 11.4204L41.3301 7.38845L40.7756 6.90074L37.2309 10.9329L37.7855 11.4204ZM41.3301 7.38845C41.6433 7.03259 41.8857 6.84802 42.0575 6.77729L41.7762 6.09432C41.4459 6.23036 41.1123 6.51814 40.7756 6.90074L41.3301 7.38845ZM42.0668 6.77315C42.151 6.73572 42.2697 6.70564 42.4325 6.69312L42.3759 5.95683C42.1547 5.97384 41.9485 6.01761 41.7669 6.09833L42.0668 6.77315ZM42.4305 6.69326C42.6261 6.6793 42.8606 6.67205 43.1353 6.67205V5.93359C42.8487 5.93359 42.5959 5.9411 42.3779 5.95667L42.4305 6.69326ZM43.1353 6.67205H43.7113V5.93359H43.1353V6.67205ZM43.7113 6.67205C44.0882 6.67205 44.3229 6.71278 44.4503 6.76568C44.5105 6.79063 44.5254 6.80969 44.5242 6.80816C44.5182 6.80077 44.5162 6.78945 44.5162 6.7902H45.2547C45.2547 6.6285 45.2037 6.47502 45.0999 6.34578C45.0009 6.22241 44.869 6.13993 44.7334 6.08365C44.4695 5.97409 44.1171 5.93359 43.7113 5.93359V6.67205ZM44.5162 6.7902C44.5162 6.84358 44.5037 6.89127 44.4762 6.93932L45.1174 7.3057C45.2081 7.14698 45.2547 6.97314 45.2547 6.7902H44.5162ZM44.4574 6.97707C44.4413 7.01468 44.3856 7.09996 44.2476 7.23794L44.7699 7.76021C44.9273 7.60281 45.0637 7.43711 45.1362 7.26796L44.4574 6.97707ZM44.2405 7.24543L40.3858 11.3217L40.9223 11.8291L44.7771 7.75282L44.2405 7.24543ZM40.3687 11.8097L44.6444 17.0159L45.2151 16.5472L40.9394 11.341L40.3687 11.8097ZM57.9914 15.696L57.6312 15.7761L57.6368 15.8014L57.6459 15.8256L57.9914 15.696ZM57.9914 17.4905L57.6413 17.3737L57.6369 17.3872L57.6334 17.4009L57.9914 17.4905ZM47.3133 17.9335L47.1967 18.284L47.2074 18.2873L47.3133 17.9335ZM46.981 17.712L46.6975 17.9485L46.7008 17.9523L46.981 17.712ZM47.9336 13.5914L48.2182 13.8269L48.2199 13.8247L47.9336 13.5914ZM54.3139 8.208L54.6014 8.44009L54.6055 8.43473L54.3139 8.208ZM49.9939 6.08123L49.6935 5.86656L49.6869 5.87647L49.9939 6.08123ZM49.7502 6.41354L49.455 6.19205L49.4489 6.20025L49.4432 6.20878L49.7502 6.41354ZM49.3957 6.81231L49.6106 7.11289L49.6175 7.10774L49.3957 6.81231ZM47.9779 6.63508L48.1249 6.29632L48.122 6.29508L47.9779 6.63508ZM47.1803 6.192L46.9061 6.43905L46.9191 6.4535L46.9335 6.4665L47.1803 6.192ZM47.2911 4.81846L46.9778 4.6232L46.9724 4.63247L47.2911 4.81846ZM49.5065 2.80246L49.348 2.46914L49.3459 2.47014L49.5065 2.80246ZM57.0388 9.53723L56.7411 9.31916L56.7404 9.32011L57.0388 9.53723ZM52.8517 12.9932L53.0567 13.3005L53.059 13.2989L52.8517 12.9932ZM50.5477 15.1643L50.2177 14.9992L49.9505 15.5335H50.5479L50.5477 15.1643ZM57.5755 15.6469C57.5867 15.6581 57.6123 15.6912 57.6312 15.7761L58.3521 15.6159C58.3118 15.4349 58.2341 15.2613 58.0976 15.1248L57.5755 15.6469ZM57.6459 15.8256C57.6665 15.8805 57.6889 16.004 57.6889 16.2277H58.4273C58.4273 15.9788 58.4054 15.7478 58.3373 15.5664L57.6459 15.8256ZM57.6889 16.2277V16.9366H58.4273V16.2277H57.6889ZM57.6889 16.9366C57.6889 17.1565 57.6674 17.2955 57.6413 17.3737L58.3419 17.6073C58.4045 17.4196 58.4273 17.1893 58.4273 16.9366H57.6889ZM57.6334 17.4009C57.6174 17.4651 57.5946 17.4983 57.5755 17.5175L58.0976 18.0395C58.2262 17.911 58.3068 17.7522 58.3498 17.58L57.6334 17.4009ZM57.5755 17.5175C57.5776 17.5154 57.537 17.5514 57.3846 17.5831C57.2418 17.6129 57.0407 17.6308 56.7732 17.6308V18.3692C57.0669 18.3692 57.3236 18.3503 57.5352 18.3062C57.7373 18.2641 57.9478 18.1893 58.0976 18.0395L57.5755 17.5175ZM56.7732 17.6308H48.0445V18.3692H56.7732V17.6308ZM48.0445 17.6308C47.7083 17.6308 47.5115 17.6076 47.4196 17.58L47.2074 18.2873C47.4108 18.3483 47.7014 18.3692 48.0445 18.3692V17.6308ZM47.4302 17.5833C47.3589 17.5595 47.3053 17.5229 47.2615 17.4718L46.7008 17.9523C46.8343 18.108 47.0022 18.2192 47.1967 18.284L47.4302 17.5833ZM47.2648 17.4756C47.2032 17.4017 47.1289 17.2107 47.1289 16.8038H46.3904C46.3904 17.2535 46.4638 17.668 46.6975 17.9485L47.2648 17.4756ZM47.1289 16.8038C47.1289 15.6959 47.4887 14.7078 48.2182 13.8269L47.6494 13.3559C46.8133 14.3655 46.3904 15.5191 46.3904 16.8038H47.1289ZM48.2199 13.8247C48.9751 12.8986 50.0549 11.9309 51.4709 10.9237L51.0432 10.3217C49.5939 11.3526 48.458 12.3642 47.6476 13.3581L48.2199 13.8247ZM51.4709 10.9237L52.8441 9.94916L52.4168 9.34686L51.0432 10.3217L51.4709 10.9237ZM52.8441 9.94916C53.6619 9.36922 54.2579 8.86538 54.6014 8.44009L54.0268 7.97605C53.75 8.31876 53.2236 8.7748 52.4168 9.34686L52.8441 9.94916ZM54.6055 8.43473C54.9689 7.9676 55.1485 7.42153 55.1485 6.81236H54.4101C54.4101 7.26656 54.2796 7.65096 54.0226 7.98136L54.6055 8.43473ZM55.1485 6.81236C55.1485 6.09426 54.9191 5.4938 54.4206 5.06913L53.9417 5.63128C54.2407 5.88599 54.4101 6.2603 54.4101 6.81236H55.1485ZM54.4206 5.06913C53.9288 4.65023 53.2374 4.47143 52.4089 4.47143V5.20989C53.1458 5.20989 53.6359 5.37079 53.9417 5.63128L54.4206 5.06913ZM52.4089 4.47143C51.2709 4.47143 50.3538 4.94214 49.6935 5.86656L50.2945 6.29589C50.8158 5.56615 51.5086 5.20989 52.4089 5.20989V4.47143ZM49.6869 5.87647C49.6643 5.91026 49.5904 6.01154 49.455 6.19205L50.0458 6.63513C50.1762 6.46118 50.2648 6.34092 50.3013 6.28609L49.6869 5.87647ZM49.4432 6.20878C49.3389 6.36523 49.2478 6.46192 49.1744 6.51697L49.6175 7.10774C49.7804 6.98556 49.9256 6.81641 50.0576 6.6184L49.4432 6.20878ZM49.1813 6.5119C49.126 6.55141 49.0961 6.5539 49.0858 6.5539V7.29236C49.2823 7.29236 49.4592 7.22108 49.6106 7.11289L49.1813 6.5119ZM49.0858 6.5539C48.863 6.5539 48.5474 6.47941 48.1249 6.29632L47.8313 6.97392C48.2949 7.17482 48.7178 7.29236 49.0858 7.29236V6.5539ZM48.122 6.29508C47.7436 6.135 47.5266 6.00676 47.4275 5.9176L46.9335 6.4665C47.1299 6.64319 47.4446 6.81033 47.8342 6.97518L48.122 6.29508ZM47.455 5.94505C47.3902 5.8731 47.3504 5.77982 47.3504 5.6382H46.6119C46.6119 5.93966 46.705 6.21561 46.9061 6.43905L47.455 5.94505ZM47.3504 5.6382C47.3504 5.55232 47.4068 5.35328 47.6103 5.00456L46.9724 4.63247C46.7623 4.99266 46.6119 5.34008 46.6119 5.6382H47.3504ZM47.6047 5.01374C48.1307 4.16932 48.8174 3.54621 49.6675 3.13488L49.3459 2.47014C48.3646 2.94496 47.5743 3.66577 46.9778 4.6232L47.6047 5.01374ZM49.6654 3.13587C50.542 2.71846 51.5136 2.50713 52.5861 2.50713V1.76866C51.4137 1.76866 50.3323 2.0004 49.348 2.46914L49.6654 3.13587ZM52.5861 2.50713C54.1778 2.50713 55.3891 2.91119 56.2639 3.67827L56.7508 3.12305C55.7055 2.20645 54.3027 1.76866 52.5861 1.76866V2.50713ZM56.2639 3.67827C57.1336 4.441 57.5781 5.47159 57.5781 6.81236H58.3165C58.3165 5.28789 57.801 4.04402 56.7508 3.12305L56.2639 3.67827ZM57.5781 6.81236C57.5781 7.7205 57.3021 8.55294 56.7411 9.31916L57.3369 9.7554C57.987 8.86747 58.3165 7.88329 58.3165 6.81236H57.5781ZM56.7404 9.32011C56.1846 10.0844 55.285 10.8982 54.0182 11.7572L54.4326 12.3685C55.7357 11.4847 56.7119 10.6148 57.3376 9.75445L56.7404 9.32011ZM54.0182 11.7572L52.6448 12.6875L53.059 13.2989L54.4326 12.3685L54.0182 11.7572ZM52.6471 12.686C51.9742 13.1347 51.4446 13.5398 51.0678 13.9008L51.5788 14.434C51.911 14.1156 52.4005 13.7381 53.0567 13.3005L52.6471 12.686ZM51.0678 13.9008C50.6929 14.2602 50.4044 14.6257 50.2177 14.9992L50.8782 15.3294C51.0164 15.0531 51.2449 14.754 51.5788 14.434L51.0678 13.9008ZM50.5479 15.5335H56.7732V14.7951H50.5479V15.5335ZM56.7732 15.5335C57.0407 15.5335 57.2418 15.5514 57.3846 15.5812C57.537 15.6129 57.5776 15.649 57.5755 15.6469L58.0976 15.1248C57.9478 14.975 57.7373 14.9003 57.5352 14.8582C57.3236 14.8141 57.0669 14.7951 56.7732 14.7951V15.5335ZM75.0218 15.12L74.7009 14.9377L74.699 14.9411L75.0218 15.12ZM61.5079 14.4332L61.1843 14.6107L61.1852 14.6122L61.5079 14.4332ZM61.4858 6.14769L61.8115 6.3221L61.8123 6.3205L61.4858 6.14769ZM74.6895 4.61908L74.4072 4.85698L74.4102 4.86046L74.6895 4.61908ZM72.5184 6.90092L72.3229 7.21408L72.331 7.21912L72.3393 7.22374L72.5184 6.90092ZM72.1196 6.50215L72.4125 6.27705L72.409 6.27258L72.1196 6.50215ZM70.6796 5.35015L70.5183 5.68225L70.5218 5.68389L70.6796 5.35015ZM65.0526 6.41354L64.7691 6.1772L64.767 6.17978L65.0526 6.41354ZM65.119 14.1009L64.8397 14.3424L64.8437 14.3468L65.119 14.1009ZM72.6956 12.0406L73.0642 12.0663L73.0917 11.6714H72.6958L72.6956 12.0406ZM69.5941 11.7969L69.3332 12.058L69.3441 12.0689L69.3558 12.0788L69.5941 11.7969ZM69.9264 9.40431L70.0067 9.7648L70.0253 9.76066L70.0434 9.75464L69.9264 9.40431ZM75.4255 9.86483C75.4499 9.88924 75.4927 9.95185 75.5278 10.0921L76.2442 9.91296C76.1906 9.69871 76.1005 9.49547 75.9477 9.34266L75.4255 9.86483ZM75.5278 10.0921C75.5606 10.2234 75.5832 10.4591 75.5832 10.8222H76.3217C76.3217 10.4469 76.3 10.1361 76.2442 9.91296L75.5278 10.0921ZM75.5832 10.8222V11.1545H76.3217V10.8222H75.5832ZM75.5832 11.1545C75.5832 12.6562 75.2831 13.912 74.7009 14.9377L75.3431 15.3024C76.0015 14.1423 76.3217 12.7543 76.3217 11.1545H75.5832ZM74.699 14.9411C74.1295 15.969 73.3282 16.7352 72.2888 17.2479L72.6155 17.9102C73.7915 17.3301 74.7034 16.4569 75.345 15.2989L74.699 14.9411ZM72.2888 17.2479C71.2399 17.7654 70.02 18.0295 68.6195 18.0295V18.768C70.1139 18.768 71.449 18.4857 72.6155 17.9102L72.2888 17.2479ZM68.6195 18.0295C67.0965 18.0295 65.7504 17.6886 64.5713 17.0148L64.205 17.656C65.5071 18.4001 66.9819 18.768 68.6195 18.768V18.0295ZM64.5713 17.0148C63.3882 16.3387 62.4771 15.4198 61.8311 14.2542L61.1852 14.6122C61.898 15.8984 62.9069 16.9142 64.205 17.656L64.5713 17.0148ZM61.832 14.2559C61.1846 13.0738 60.8583 11.7545 60.8583 10.2905H60.1198C60.1198 11.8689 60.4729 13.3116 61.1843 14.6107L61.832 14.2559ZM60.8583 10.2905C60.8583 8.82507 61.1779 7.50481 61.8115 6.3221L61.1605 5.97338C60.4649 7.2719 60.1198 8.71349 60.1198 10.2905H60.8583ZM61.8123 6.3205C62.4443 5.12668 63.348 4.18747 64.5299 3.49806L64.1578 2.86019C62.8584 3.61817 61.8569 4.65804 61.1597 5.97498L61.8123 6.3205ZM64.5299 3.49806C65.705 2.8126 67.1006 2.46282 68.7303 2.46282V1.72436C66.9926 1.72436 65.4639 2.09827 64.1578 2.86019L64.5299 3.49806ZM68.7303 2.46282C71.1959 2.46282 73.0711 3.27043 74.4072 4.85698L74.9721 4.38129C73.4725 2.60045 71.3748 1.72436 68.7303 1.72436V2.46282ZM74.4102 4.86046C74.6751 5.16713 74.7414 5.36147 74.7414 5.46097H75.4798C75.4798 5.08785 75.2655 4.72097 74.9691 4.37779L74.4102 4.86046ZM74.7414 5.46097C74.7414 5.65021 74.6041 5.9163 74.0465 6.22298L74.4024 6.87004C75.0263 6.52686 75.4798 6.06927 75.4798 5.46097H74.7414ZM74.0465 6.22298C73.4899 6.53053 73.1331 6.64251 72.9395 6.64251V7.38097C73.3367 7.38097 73.8365 7.1828 74.4024 6.87004L74.0465 6.22298ZM72.9395 6.64251C72.8565 6.64251 72.7777 6.62252 72.6979 6.57821L72.3393 7.22374C72.5254 7.32712 72.7272 7.38097 72.9395 7.38097V6.64251ZM72.7143 6.58786C72.6513 6.54847 72.5502 6.45601 72.4125 6.27705L71.8272 6.72733C71.9849 6.93236 72.1496 7.10578 72.3229 7.21408L72.7143 6.58786ZM72.409 6.27258C71.9762 5.72765 71.4519 5.30736 70.8379 5.01651L70.5218 5.68389C71.0302 5.92474 71.4659 6.27245 71.8307 6.73182L72.409 6.27258ZM70.8414 5.01818C70.234 4.7227 69.5264 4.5822 68.7303 4.5822V5.32066C69.4407 5.32066 70.0328 5.44604 70.5183 5.68225L70.8414 5.01818ZM68.7303 4.5822C67.0158 4.5822 65.671 5.09496 64.7691 6.1772L65.3364 6.64996C66.0592 5.78267 67.1661 5.32066 68.7303 5.32066V4.5822ZM64.767 6.17978C63.9019 7.23706 63.4872 8.61958 63.4872 10.2905H64.2257C64.2257 8.74174 64.6085 7.53966 65.3385 6.6474L64.767 6.17978ZM63.4872 10.2905C63.4872 11.9247 63.9281 13.2867 64.8397 14.3424L65.3987 13.8596C64.6266 12.9656 64.2257 11.7873 64.2257 10.2905H63.4872ZM64.8437 14.3468C65.784 15.4005 67.0892 15.9102 68.7081 15.9102V15.1717C67.2551 15.1717 66.1677 14.7214 65.3947 13.8551L64.8437 14.3468ZM68.7081 15.9102C70.0092 15.9102 71.0655 15.6062 71.8206 14.9433C72.5797 14.2771 72.9784 13.2977 73.0642 12.0663L72.3275 12.015C72.2508 13.117 71.9037 13.8878 71.3335 14.3884C70.7594 14.8923 69.9031 15.1717 68.7081 15.1717V15.9102ZM72.6958 11.6714H70.5026V12.4098H72.6958V11.6714ZM70.5026 11.6714C70.1241 11.6714 69.9269 11.5947 69.8328 11.5151L69.3558 12.0788C69.6457 12.3241 70.054 12.4098 70.5026 12.4098V11.6714ZM69.8554 11.5358C69.8119 11.4923 69.742 11.3643 69.742 11.0437H69.0035C69.0035 11.432 69.0813 11.8061 69.3332 12.058L69.8554 11.5358ZM69.742 11.0437V10.3348H69.0035V11.0437H69.742ZM69.742 10.3348C69.742 10.0263 69.814 9.88409 69.8775 9.82052L69.3554 9.29835C69.094 9.55971 69.0035 9.93436 69.0035 10.3348H69.742ZM69.8775 9.82052C69.8887 9.80933 69.9219 9.78365 70.0067 9.7648L69.8465 9.04392C69.6655 9.08414 69.4919 9.16185 69.3554 9.29835L69.8775 9.82052ZM70.0434 9.75464C70.12 9.72911 70.265 9.70713 70.5026 9.70713V8.96866C70.238 8.96866 69.9991 8.99099 69.8098 9.05407L70.0434 9.75464ZM70.5026 9.70713H74.6897V8.96866H70.5026V9.70713ZM74.6897 9.70713C74.9587 9.70713 75.1301 9.72924 75.226 9.75802L75.4382 9.0507C75.2388 8.99085 74.9819 8.96866 74.6897 8.96866V9.70713ZM75.226 9.75802C75.3284 9.78876 75.389 9.82828 75.4255 9.86483L75.9477 9.34266C75.807 9.20197 75.6312 9.10857 75.4382 9.0507L75.226 9.75802ZM89.074 12.6166L89.3212 12.8911L89.3284 12.8846L89.3353 12.8777L89.074 12.6166ZM88.4759 12.9046L88.5402 13.2682L88.5505 13.2664L88.5606 13.264L88.4759 12.9046ZM81.2094 12.9711L81.2096 12.6018H80.77L80.8459 13.0349L81.2094 12.9711ZM82.3614 14.9428L82.1378 15.2365L82.1423 15.2399L82.3614 14.9428ZM87.2131 14.9206L87.0481 14.5903L87.0395 14.5948L87.2131 14.9206ZM88.1879 14.9428L87.9428 15.2188L87.9518 15.2268L87.9614 15.2342L88.1879 14.9428ZM88.6531 15.4745L88.9587 15.2668L88.955 15.2615L88.6531 15.4745ZM88.21 17.3354L88.0093 17.0257L88.0079 17.0266L88.21 17.3354ZM78.8611 15.3858L78.5395 15.5669L78.5407 15.569L78.8611 15.3858ZM78.7503 8.93908L78.4224 8.76977L78.4203 8.774L78.7503 8.93908ZM89.3177 12.1292L88.9629 12.0278L88.9595 12.0397L88.9569 12.0519L89.3177 12.1292ZM82.0291 9.18277L82.2768 9.45687L82.2815 9.45246L82.0291 9.18277ZM81.1873 10.9551L80.8215 10.9059L80.7652 11.3243H81.1875L81.1873 10.9551ZM86.4377 10.9551L86.4379 11.3243H86.8366L86.8061 10.9268L86.4377 10.9551ZM85.6845 9.18277L85.428 9.44833L85.4327 9.45275L85.6845 9.18277ZM88.8272 12.3422C88.7374 12.423 88.5996 12.4962 88.3915 12.5452L88.5606 13.264C88.8546 13.1949 89.1157 13.0761 89.3212 12.8911L88.8272 12.3422ZM88.4119 12.541C88.1924 12.5797 87.8631 12.6018 87.4127 12.6018V13.3403C87.878 13.3403 88.2576 13.3181 88.5402 13.2682L88.4119 12.541ZM87.4127 12.6018H81.2096V13.3403H87.4127V12.6018ZM80.8459 13.0349C81.008 13.9587 81.4363 14.7019 82.1378 15.2365L82.5854 14.6491C82.0463 14.2384 81.7066 13.6672 81.5733 12.9073L80.8459 13.0349ZM82.1423 15.2399C82.8412 15.7558 83.7216 15.9988 84.7542 15.9988V15.2603C83.8373 15.2603 83.1226 15.0456 82.5809 14.6458L82.1423 15.2399ZM84.7542 15.9988C85.5849 15.9988 86.4645 15.7384 87.3871 15.2464L87.0395 14.5948C86.1897 15.048 85.43 15.2603 84.7542 15.2603V15.9988ZM87.3784 15.2509C87.56 15.1601 87.678 15.1348 87.745 15.1348V14.3963C87.5166 14.3963 87.28 14.4743 87.0481 14.5903L87.3784 15.2509ZM87.745 15.1348C87.8082 15.1348 87.8705 15.1546 87.9428 15.2188L88.4334 14.6668C88.2398 14.4947 88.0067 14.3963 87.745 14.3963V15.1348ZM87.9614 15.2342C88.051 15.304 88.1811 15.4458 88.3516 15.6874L88.955 15.2615C88.771 15.0009 88.591 14.7885 88.4148 14.6514L87.9614 15.2342ZM88.348 15.6821C88.5923 16.0414 88.6607 16.2574 88.6607 16.3607H89.3991C89.3991 16.0209 89.2166 15.646 88.9587 15.2668L88.348 15.6821ZM88.6607 16.3607C88.6607 16.3903 88.647 16.4638 88.5424 16.5882C88.4383 16.712 88.2664 16.8589 88.0093 17.0257L88.4112 17.6453C88.7005 17.4576 88.9385 17.2646 89.1076 17.0635C89.2762 16.863 89.3991 16.6265 89.3991 16.3607H88.6607ZM88.0079 17.0266C87.6242 17.278 87.1044 17.4935 86.4352 17.6644L86.6179 18.3799C87.337 18.1963 87.9396 17.9541 88.4126 17.6442L88.0079 17.0266ZM86.4352 17.6644C85.7735 17.8333 85.0659 17.9188 84.3111 17.9188V18.6572C85.1219 18.6572 85.8913 18.5654 86.6179 18.3799L86.4352 17.6644ZM84.3111 17.9188C83.1524 17.9188 82.1351 17.679 81.2499 17.2087L80.9035 17.8608C81.9087 18.3949 83.0477 18.6572 84.3111 18.6572V17.9188ZM81.2499 17.2087C80.3664 16.7393 79.679 16.0726 79.1819 15.2027L78.5407 15.569C79.107 16.56 79.8965 17.3259 80.9035 17.8608L81.2499 17.2087ZM79.1831 15.2048C78.6871 14.323 78.433 13.287 78.433 12.0849H77.6945C77.6945 13.3936 77.9721 14.5582 78.5395 15.5669L79.1831 15.2048ZM78.433 12.0849C78.433 10.9519 78.6523 9.96131 79.0808 9.10425L78.4203 8.774C77.9331 9.74833 77.6945 10.855 77.6945 12.0849H78.433ZM79.0786 9.10847C79.5192 8.25483 80.1495 7.59054 80.9747 7.10914L80.6026 6.47127C79.6556 7.02371 78.9271 7.79203 78.4224 8.76977L79.0786 9.10847ZM80.9747 7.10914C81.7956 6.63028 82.7705 6.38405 83.9124 6.38405V5.64559C82.6617 5.64559 81.554 5.91628 80.6026 6.47127L80.9747 7.10914ZM83.9124 6.38405C85.0135 6.38405 85.9371 6.60964 86.6978 7.04432L87.0642 6.40316C86.1707 5.89261 85.1152 5.64559 83.9124 5.64559V6.38405ZM86.6978 7.04432C87.4681 7.48447 88.045 8.07037 88.4388 8.80367L89.0894 8.45428C88.6266 7.5925 87.9481 6.90824 87.0642 6.40316L86.6978 7.04432ZM88.4388 8.80367C88.8361 9.54341 89.0373 10.3688 89.0373 11.2874H89.7758C89.7758 10.2565 89.5487 9.30961 89.0894 8.45428L88.4388 8.80367ZM89.0373 11.2874C89.0373 11.6267 89.0084 11.8684 88.9629 12.0278L89.6729 12.2307C89.7455 11.9765 89.7758 11.657 89.7758 11.2874H89.0373ZM88.9569 12.0519C88.9235 12.2074 88.8691 12.2995 88.8131 12.3555L89.3353 12.8777C89.5156 12.6974 89.6237 12.4646 89.6789 12.2066L88.9569 12.0519ZM83.8902 8.17113C83.0381 8.17113 82.3192 8.40599 81.7771 8.91318L82.2815 9.45246C82.6551 9.10303 83.1768 8.90959 83.8902 8.90959V8.17113ZM81.7818 8.90881C81.2439 9.39467 80.9335 10.0741 80.8215 10.9059L81.5534 11.0043C81.6482 10.3001 81.899 9.79808 82.2768 9.45687L81.7818 8.90881ZM81.1875 11.3243H86.4379V10.5859H81.1875V11.3243ZM86.8061 10.9268C86.7419 10.0925 86.4642 9.4053 85.9366 8.91289L85.4327 9.45275C85.7913 9.78741 86.0158 10.2818 86.0698 10.9834L86.8061 10.9268ZM85.9413 8.91735C85.4147 8.40832 84.7167 8.17113 83.8902 8.17113V8.90959C84.5702 8.90959 85.0684 9.10075 85.428 9.44833L85.9413 8.91735ZM99.0292 17.7342L98.7379 17.5075L98.734 17.5126L99.0292 17.7342ZM98.5196 18.0222L98.6094 18.3804L98.6168 18.3785L98.624 18.3764L98.5196 18.0222ZM92.6932 8.784L93.0626 8.78405V8.41482H92.6934L92.6932 8.784ZM90.6329 8.27446L90.2726 8.35461L90.2783 8.3799L90.2873 8.40416L90.6329 8.27446ZM90.6329 6.83446L90.2828 6.71775L90.2783 6.7312L90.2749 6.74496L90.6329 6.83446ZM92.6932 6.30277L92.6934 6.67205H93.0626V6.30282L92.6932 6.30277ZM92.7375 3.312L92.392 3.1824L92.3867 3.19632L92.3827 3.21061L92.7375 3.312ZM93.2913 2.80246L93.1944 2.44618L93.1854 2.44885L93.2913 2.80246ZM95.1301 2.80246L95.0242 3.15617L95.044 3.1621L95.0642 3.16578L95.1301 2.80246ZM95.5067 2.97969L95.2458 3.24083L95.2577 3.25267L95.2705 3.26339L95.5067 2.97969ZM95.7726 6.30277L95.4035 6.30282V6.67205H95.7728L95.7726 6.30277ZM98.7633 6.83446L98.4031 6.91461L98.4087 6.9399L98.4178 6.96416L98.7633 6.83446ZM98.7633 8.27446L98.4132 8.15775L98.4088 8.1712L98.4053 8.18496L98.7633 8.27446ZM95.7726 8.784L95.7728 8.41482H95.4035V8.78405L95.7726 8.784ZM98.0766 15.6295L98.0107 15.2662L98.0044 15.2675L98.0766 15.6295ZM98.9184 15.8068L98.602 15.9967L98.6087 16.0079L98.6161 16.0185L98.9184 15.8068ZM98.7738 16.6058C98.8022 16.8332 98.8152 17.0163 98.8152 17.1582H99.5537C99.5537 16.9751 99.5372 16.7594 99.5065 16.5142L98.7738 16.6058ZM98.8152 17.1582C98.8152 17.3657 98.7715 17.4643 98.7379 17.5075L99.3208 17.9608C99.4941 17.7381 99.5537 17.4528 99.5537 17.1582H98.8152ZM98.734 17.5126C98.7178 17.5342 98.6426 17.6012 98.4157 17.6679L98.624 18.3764C98.8993 18.2954 99.1637 18.1704 99.3248 17.9557L98.734 17.5126ZM98.4303 17.6639C97.9293 17.7892 97.4056 17.8524 96.8583 17.8524V18.5908C97.463 18.5908 98.047 18.521 98.6094 18.3804L98.4303 17.6639ZM96.8583 17.8524C95.3299 17.8524 94.3821 17.5033 93.8824 16.9183L93.3209 17.3981C94.0323 18.2309 95.2556 18.5908 96.8583 18.5908V17.8524ZM93.8824 16.9183C93.3557 16.3017 93.0626 15.3606 93.0626 14.0345H92.3242C92.3242 15.4554 92.6366 16.5969 93.3209 17.3981L93.8824 16.9183ZM93.0626 14.0345V8.78405H92.3242V14.0345H93.0626ZM92.6934 8.41482H91.8737V9.15328H92.6934V8.41482ZM91.8737 8.41482C91.6062 8.41482 91.4051 8.39696 91.2622 8.3672C91.1098 8.33545 91.0693 8.29932 91.0714 8.30143L90.5492 8.8236C90.699 8.97339 90.9095 9.04803 91.1116 9.09013C91.3232 9.13422 91.58 9.15328 91.8737 9.15328V8.41482ZM91.0714 8.30143C91.0417 8.27179 91.0084 8.22376 90.9788 8.14487L90.2873 8.40416C90.3464 8.56157 90.4312 8.70555 90.5492 8.8236L91.0714 8.30143ZM90.9935 8.19441C90.9726 8.10013 90.958 7.94661 90.958 7.72066H90.2195C90.2195 7.96734 90.2345 8.18304 90.2726 8.35461L90.9935 8.19441ZM90.958 7.72066V7.3662H90.2195V7.72066H90.958ZM90.958 7.3662C90.958 7.13745 90.973 6.99702 90.9913 6.92406L90.2749 6.74496C90.234 6.90831 90.2195 7.12234 90.2195 7.3662H90.958ZM90.9834 6.95127C91.0154 6.85501 91.0495 6.80734 91.0714 6.78544L90.5492 6.26327C90.4234 6.38906 90.3393 6.54817 90.2828 6.71775L90.9834 6.95127ZM91.0714 6.78544C91.0693 6.78754 91.1098 6.75142 91.2622 6.71967C91.4051 6.68991 91.6062 6.67205 91.8737 6.67205V5.93359C91.58 5.93359 91.3232 5.95265 91.1116 5.99673C90.9095 6.03883 90.699 6.11348 90.5492 6.26327L91.0714 6.78544ZM91.8737 6.67205H92.6934V5.93359H91.8737V6.67205ZM93.0626 6.30282V3.82159H92.3242V6.30282H93.0626ZM93.0626 3.82159C93.0626 3.58867 93.0784 3.46353 93.0927 3.41348L92.3827 3.21061C92.3379 3.36734 92.3242 3.58189 92.3242 3.82159H93.0626ZM93.0834 3.44169C93.1093 3.37254 93.1471 3.31406 93.1982 3.26298L92.676 2.74081C92.5498 2.86696 92.4546 3.01525 92.392 3.1824L93.0834 3.44169ZM93.1982 3.26298C93.2347 3.22644 93.2952 3.18691 93.3976 3.15617L93.1854 2.44885C92.9925 2.50672 92.8167 2.60012 92.676 2.74081L93.1982 3.26298ZM93.3887 3.15873C93.5007 3.12817 93.7174 3.10528 94.0669 3.10528V2.36682C93.7075 2.36682 93.4073 2.38812 93.1944 2.44618L93.3887 3.15873ZM94.0669 3.10528H94.3549V2.36682H94.0669V3.10528ZM94.3549 3.10528C94.7243 3.10528 94.9337 3.12903 95.0242 3.15617L95.2364 2.44885C95.0315 2.38738 94.724 2.36682 94.3549 2.36682V3.10528ZM95.0642 3.16578C95.176 3.18611 95.2249 3.21985 95.2458 3.24083L95.768 2.71865C95.6117 2.5624 95.4095 2.47799 95.1964 2.43924L95.0642 3.16578ZM95.2705 3.26339C95.3163 3.30155 95.4035 3.43588 95.4035 3.82159H96.142C96.142 3.38022 96.052 2.95331 95.7433 2.69609L95.2705 3.26339ZM95.4035 3.82159V6.30282H96.142V3.82159H95.4035ZM95.7728 6.67205H97.5451V5.93359H95.7728V6.67205ZM97.5451 6.67205C97.8126 6.67205 98.0137 6.68991 98.1565 6.71967C98.3089 6.75142 98.3495 6.78754 98.3474 6.78544L98.8695 6.26327C98.7198 6.11348 98.5092 6.03883 98.3071 5.99673C98.0955 5.95265 97.8388 5.93359 97.5451 5.93359V6.67205ZM98.3474 6.78544C98.3586 6.79664 98.3842 6.82976 98.4031 6.91461L99.124 6.75441C99.0837 6.57342 99.006 6.39977 98.8695 6.26327L98.3474 6.78544ZM98.4178 6.96416C98.4384 7.019 98.4608 7.14247 98.4608 7.3662H99.1992C99.1992 7.11732 99.1773 6.88633 99.1093 6.70486L98.4178 6.96416ZM98.4608 7.3662V7.72066H99.1992V7.3662H98.4608ZM98.4608 7.72066C98.4608 7.94059 98.4393 8.07958 98.4132 8.15775L99.1138 8.39127C99.1764 8.2036 99.1992 7.97335 99.1992 7.72066H98.4608ZM98.4053 8.18496C98.3893 8.24912 98.3665 8.28228 98.3474 8.30142L98.8695 8.8236C98.9981 8.69505 99.0787 8.53621 99.1217 8.36406L98.4053 8.18496ZM98.3474 8.30142C98.3495 8.29931 98.3089 8.33545 98.1565 8.3672C98.0137 8.39696 97.8126 8.41482 97.5451 8.41482V9.15328C97.8388 9.15328 98.0955 9.13422 98.3071 9.09013C98.5092 9.04803 98.7198 8.97339 98.8695 8.8236L98.3474 8.30142ZM97.5451 8.41482H95.7728V9.15328H97.5451V8.41482ZM95.4035 8.78405V13.6357H96.142V8.78405H95.4035ZM95.4035 13.6357C95.4035 14.3622 95.5645 14.976 95.9513 15.41C96.3453 15.852 96.9152 16.0431 97.5894 16.0431V15.3046C97.0525 15.3046 96.7141 15.156 96.5026 14.9186C96.2838 14.6732 96.142 14.268 96.142 13.6357H95.4035ZM97.5894 16.0431C97.7868 16.0431 97.9739 16.0267 98.1492 15.9916L98.0044 15.2675C97.8842 15.2915 97.7464 15.3046 97.5894 15.3046V16.0431ZM98.1428 15.9928C98.2947 15.9652 98.4034 15.9545 98.4755 15.9545V15.216C98.3409 15.216 98.1837 15.2347 98.0107 15.2662L98.1428 15.9928ZM98.4755 15.9545C98.5357 15.9545 98.565 15.9652 98.5763 15.9709C98.5845 15.975 98.5922 15.9804 98.602 15.9967L99.2352 15.6168C99.0656 15.334 98.7815 15.216 98.4755 15.216V15.9545ZM98.6161 16.0185C98.6652 16.0887 98.731 16.2633 98.7738 16.6058L99.5065 16.5142C99.4607 16.1477 99.3788 15.8203 99.2211 15.595L98.6161 16.0185ZM111.992 17.7563L111.756 17.4727L111.743 17.4834L111.731 17.4952L111.992 17.7563ZM111.616 17.9557L111.688 18.3179L111.701 18.3153L111.713 18.3119L111.616 17.9557ZM109.777 17.9335L109.671 18.2873L109.68 18.2899L109.777 17.9335ZM109.223 17.424L108.865 17.5136L108.87 17.534L108.877 17.5536L109.223 17.424ZM108.625 9.33785L108.337 9.56971L108.341 9.57427L108.625 9.33785ZM105.102 9.42646L105.383 9.66615L105.387 9.66209L105.102 9.42646ZM104.194 17.7563L103.958 17.4727L103.945 17.4834L103.933 17.4952L104.194 17.7563ZM103.817 17.9557L103.89 18.3179L103.902 18.3153L103.915 18.3119L103.817 17.9557ZM101.979 17.9335L101.873 18.2873L101.882 18.2899L101.979 17.9335ZM101.425 17.424L101.067 17.5136L101.072 17.534L101.079 17.5536L101.425 17.424ZM101.425 2.40369L101.079 2.27409L101.074 2.28801L101.07 2.30231L101.425 2.40369ZM101.979 1.89415L101.882 1.53787L101.873 1.54054L101.979 1.89415ZM103.817 1.89415L103.711 2.24786L103.731 2.25379L103.751 2.25748L103.817 1.89415ZM104.194 2.07138L103.933 2.33252L103.945 2.34436L103.958 2.35508L104.194 2.07138ZM104.46 8.07508L104.091 8.07513L104.793 8.23417L104.46 8.07508ZM105.878 6.56861L106.058 6.89113L106.063 6.88787L105.878 6.56861ZM108.115 6.38405C109.309 6.38405 110.212 6.77716 110.871 7.54083L111.43 7.05866C110.611 6.10909 109.491 5.64559 108.115 5.64559V6.38405ZM110.871 7.54083C111.534 8.31029 111.889 9.403 111.889 10.8665H112.627C112.627 9.28756 112.244 8.00242 111.43 7.05866L110.871 7.54083ZM111.889 10.8665V16.9145H112.627V10.8665H111.889ZM111.889 16.9145C111.889 17.3002 111.802 17.4345 111.756 17.4727L112.229 18.0401C112.537 17.7828 112.627 17.3558 112.627 16.9145H111.889ZM111.731 17.4952C111.701 17.5254 111.639 17.5666 111.518 17.5996L111.713 18.3119C111.917 18.2563 112.106 18.1645 112.253 18.0175L111.731 17.4952ZM111.543 17.5936C111.435 17.6152 111.21 17.6308 110.84 17.6308V18.3692C111.209 18.3692 111.501 18.3553 111.688 18.3179L111.543 17.5936ZM110.84 17.6308H110.552V18.3692H110.84V17.6308ZM110.552 17.6308C110.203 17.6308 109.986 17.6079 109.874 17.5773L109.68 18.2899C109.893 18.3479 110.193 18.3692 110.552 18.3692V17.6308ZM109.883 17.58C109.78 17.5492 109.72 17.5097 109.683 17.4732L109.161 17.9952C109.302 18.1359 109.478 18.2294 109.671 18.2873L109.883 17.58ZM109.683 17.4732C109.632 17.4221 109.595 17.3635 109.569 17.2944L108.877 17.5536C108.94 17.7208 109.035 17.8691 109.161 17.9952L109.683 17.4732ZM109.581 17.3344C109.563 17.2603 109.548 17.1261 109.548 16.9145H108.809C108.809 17.1459 108.824 17.3514 108.865 17.5136L109.581 17.3344ZM109.548 16.9145V11.376H108.809V16.9145H109.548ZM109.548 11.376C109.548 10.4218 109.357 9.64018 108.909 9.10152L108.341 9.57427C108.631 9.92177 108.809 10.499 108.809 11.376H109.548ZM108.912 9.10611C108.453 8.53625 107.762 8.2819 106.919 8.2819V9.02036C107.612 9.02036 108.059 9.22388 108.337 9.56971L108.912 9.10611ZM106.919 8.2819C106.047 8.2819 105.329 8.57485 104.818 9.19094L105.387 9.66209C105.733 9.24433 106.226 9.02036 106.919 9.02036V8.2819ZM104.821 9.1869C104.316 9.77965 104.091 10.6018 104.091 11.5975H104.829C104.829 10.7029 105.032 10.0777 105.383 9.66615L104.821 9.1869ZM104.091 11.5975V16.9145H104.829V11.5975H104.091ZM104.091 16.9145C104.091 17.3002 104.004 17.4345 103.958 17.4727L104.43 18.0401C104.739 17.7828 104.829 17.3558 104.829 16.9145H104.091ZM103.933 17.4952C103.903 17.5254 103.841 17.5666 103.72 17.5996L103.915 18.3119C104.119 18.2563 104.308 18.1645 104.455 18.0175L103.933 17.4952ZM103.745 17.5936C103.637 17.6152 103.412 17.6308 103.042 17.6308V18.3692C103.411 18.3692 103.702 18.3553 103.89 18.3179L103.745 17.5936ZM103.042 17.6308H102.754V18.3692H103.042V17.6308ZM102.754 17.6308C102.405 17.6308 102.188 17.6079 102.076 17.5773L101.882 18.2899C102.094 18.3479 102.395 18.3692 102.754 18.3692V17.6308ZM102.085 17.58C101.982 17.5492 101.922 17.5097 101.885 17.4732L101.363 17.9952C101.504 18.1359 101.68 18.2294 101.873 18.2873L102.085 17.58ZM101.885 17.4732C101.834 17.4221 101.797 17.3635 101.771 17.2944L101.079 17.5536C101.142 17.7208 101.237 17.8691 101.363 17.9952L101.885 17.4732ZM101.783 17.3344C101.765 17.2603 101.75 17.1261 101.75 16.9145H101.011C101.011 17.1459 101.026 17.3514 101.067 17.5136L101.783 17.3344ZM101.75 16.9145V2.91328H101.011V16.9145H101.75ZM101.75 2.91328C101.75 2.68036 101.766 2.55522 101.78 2.50518L101.07 2.30231C101.025 2.45903 101.011 2.67358 101.011 2.91328H101.75ZM101.771 2.53339C101.797 2.46423 101.834 2.40575 101.885 2.35467L101.363 1.8325C101.237 1.95865 101.142 2.10694 101.079 2.27409L101.771 2.53339ZM101.885 2.35467C101.922 2.31813 101.982 2.27861 102.085 2.24786L101.873 1.54054C101.68 1.59841 101.504 1.69181 101.363 1.8325L101.885 2.35467ZM102.076 2.25042C102.188 2.21987 102.405 2.19697 102.754 2.19697V1.45851C102.395 1.45851 102.094 1.47981 101.882 1.53787L102.076 2.25042ZM102.754 2.19697H103.042V1.45851H102.754V2.19697ZM103.042 2.19697C103.411 2.19697 103.621 2.22072 103.711 2.24786L103.924 1.54054C103.719 1.47907 103.411 1.45851 103.042 1.45851V2.19697ZM103.751 2.25748C103.863 2.2778 103.912 2.31154 103.933 2.33252L104.455 1.81035C104.299 1.6541 104.097 1.56968 103.884 1.53093L103.751 2.25748ZM103.958 2.35508C104.004 2.39325 104.091 2.52757 104.091 2.91328H104.829C104.829 2.47191 104.739 2.04501 104.43 1.78778L103.958 2.35508ZM104.091 2.91328V8.07513H104.829V2.91328H104.091ZM104.793 8.23417C105.07 7.65408 105.489 7.20872 106.058 6.89113L105.698 6.24625C104.997 6.63758 104.47 7.19648 104.127 7.91609L104.793 8.23417ZM106.063 6.88787C106.633 6.5565 107.313 6.38405 108.115 6.38405V5.64559C107.204 5.64559 106.392 5.84237 105.692 6.24946L106.063 6.88787ZM125.758 12.6166L126.005 12.8911L126.012 12.8846L126.019 12.8777L125.758 12.6166ZM125.16 12.9046L125.224 13.2682L125.234 13.2664L125.244 13.264L125.16 12.9046ZM117.893 12.9711L117.893 12.6018H117.453L117.529 13.0349L117.893 12.9711ZM119.045 14.9428L118.821 15.2365L118.826 15.2399L119.045 14.9428ZM123.897 14.9206L123.732 14.5903L123.723 14.5948L123.897 14.9206ZM124.872 14.9428L124.626 15.2188L124.635 15.2268L124.645 15.2342L124.872 14.9428ZM125.337 15.4745L125.642 15.2668L125.638 15.2615L125.337 15.4745ZM124.894 17.3354L124.693 17.0257L124.691 17.0266L124.894 17.3354ZM115.545 15.3858L115.223 15.5669L115.224 15.569L115.545 15.3858ZM115.434 8.93908L115.106 8.76977L115.104 8.774L115.434 8.93908ZM126.001 12.1292L125.646 12.0278L125.643 12.0397L125.64 12.0519L126.001 12.1292ZM118.713 9.18277L118.96 9.45687L118.965 9.45246L118.713 9.18277ZM117.871 10.9551L117.505 10.9059L117.449 11.3243H117.871L117.871 10.9551ZM123.121 10.9551L123.121 11.3243H123.52L123.49 10.9268L123.121 10.9551ZM122.368 9.18277L122.111 9.44833L122.116 9.45275L122.368 9.18277ZM125.511 12.3422C125.421 12.423 125.283 12.4962 125.075 12.5452L125.244 13.264C125.538 13.1949 125.799 13.0761 126.005 12.8911L125.511 12.3422ZM125.095 12.541C124.876 12.5797 124.547 12.6018 124.096 12.6018V13.3403C124.561 13.3403 124.941 13.3181 125.224 13.2682L125.095 12.541ZM124.096 12.6018H117.893V13.3403H124.096V12.6018ZM117.529 13.0349C117.691 13.9587 118.12 14.7019 118.821 15.2365L119.269 14.6491C118.73 14.2384 118.39 13.6672 118.257 12.9073L117.529 13.0349ZM118.826 15.2399C119.525 15.7558 120.405 15.9988 121.438 15.9988V15.2603C120.521 15.2603 119.806 15.0456 119.264 14.6458L118.826 15.2399ZM121.438 15.9988C122.268 15.9988 123.148 15.7384 124.071 15.2464L123.723 14.5948C122.873 15.048 122.113 15.2603 121.438 15.2603V15.9988ZM124.062 15.2509C124.243 15.1601 124.361 15.1348 124.428 15.1348V14.3963C124.2 14.3963 123.964 14.4743 123.732 14.5903L124.062 15.2509ZM124.428 15.1348C124.492 15.1348 124.554 15.1546 124.626 15.2188L125.117 14.6668C124.923 14.4947 124.69 14.3963 124.428 14.3963V15.1348ZM124.645 15.2342C124.734 15.304 124.865 15.4458 125.035 15.6874L125.638 15.2615C125.454 15.0009 125.274 14.7885 125.098 14.6514L124.645 15.2342ZM125.031 15.6821C125.276 16.0414 125.344 16.2574 125.344 16.3607H126.083C126.083 16.0209 125.9 15.646 125.642 15.2668L125.031 15.6821ZM125.344 16.3607C125.344 16.3903 125.33 16.4638 125.226 16.5882C125.122 16.712 124.95 16.8589 124.693 17.0257L125.095 17.6453C125.384 17.4576 125.622 17.2646 125.791 17.0635C125.96 16.863 126.083 16.6265 126.083 16.3607H125.344ZM124.691 17.0266C124.308 17.278 123.788 17.4935 123.119 17.6644L123.301 18.3799C124.02 18.1963 124.623 17.9541 125.096 17.6442L124.691 17.0266ZM123.119 17.6644C122.457 17.8333 121.749 17.9188 120.995 17.9188V18.6572C121.805 18.6572 122.575 18.5654 123.301 18.3799L123.119 17.6644ZM120.995 17.9188C119.836 17.9188 118.819 17.679 117.933 17.2087L117.587 17.8608C118.592 18.3949 119.731 18.6572 120.995 18.6572V17.9188ZM117.933 17.2087C117.05 16.7393 116.362 16.0726 115.865 15.2027L115.224 15.569C115.79 16.56 116.58 17.3259 117.587 17.8608L117.933 17.2087ZM115.867 15.2048C115.371 14.323 115.116 13.287 115.116 12.0849H114.378C114.378 13.3936 114.656 14.5582 115.223 15.5669L115.867 15.2048ZM115.116 12.0849C115.116 10.9519 115.336 9.96131 115.764 9.10425L115.104 8.774C114.617 9.74833 114.378 10.855 114.378 12.0849H115.116ZM115.762 9.10847C116.203 8.25483 116.833 7.59054 117.658 7.10914L117.286 6.47127C116.339 7.02371 115.611 7.79203 115.106 8.76977L115.762 9.10847ZM117.658 7.10914C118.479 6.63028 119.454 6.38405 120.596 6.38405V5.64559C119.345 5.64559 118.237 5.91628 117.286 6.47127L117.658 7.10914ZM120.596 6.38405C121.697 6.38405 122.621 6.60964 123.381 7.04432L123.748 6.40316C122.854 5.89261 121.799 5.64559 120.596 5.64559V6.38405ZM123.381 7.04432C124.152 7.48447 124.728 8.07037 125.122 8.80367L125.773 8.45428C125.31 7.5925 124.632 6.90824 123.748 6.40316L123.381 7.04432ZM125.122 8.80367C125.52 9.54341 125.721 10.3688 125.721 11.2874H126.459C126.459 10.2565 126.232 9.30961 125.773 8.45428L125.122 8.80367ZM125.721 11.2874C125.721 11.6267 125.692 11.8684 125.646 12.0278L126.356 12.2307C126.429 11.9765 126.459 11.657 126.459 11.2874H125.721ZM125.64 12.0519C125.607 12.2074 125.553 12.2995 125.497 12.3555L126.019 12.8777C126.199 12.6974 126.307 12.4646 126.362 12.2066L125.64 12.0519ZM120.574 8.17113C119.722 8.17113 119.003 8.40599 118.461 8.91318L118.965 9.45246C119.339 9.10303 119.86 8.90959 120.574 8.90959V8.17113ZM118.465 8.90881C117.927 9.39467 117.617 10.0741 117.505 10.9059L118.237 11.0043C118.332 10.3001 118.582 9.79808 118.96 9.45687L118.465 8.90881ZM117.871 11.3243H123.121V10.5859H117.871V11.3243ZM123.49 10.9268C123.425 10.0925 123.148 9.4053 122.62 8.91289L122.116 9.45275C122.475 9.78741 122.699 10.2818 122.753 10.9834L123.49 10.9268ZM122.625 8.91735C122.098 8.40832 121.4 8.17113 120.574 8.17113V8.90959C121.254 8.90959 121.752 9.10071 122.112 9.44829L122.625 8.91735ZM135.974 6.36923L136.184 6.06565L136.179 6.06206L135.974 6.36923ZM136.063 8.67323L136.413 8.79004L136.415 8.78318L136.417 8.77623L136.063 8.67323ZM135.841 9.04985L136.046 9.35711L136.062 9.34617L136.077 9.33355L135.841 9.04985ZM134.955 9.11631L134.924 9.48432L134.927 9.4845L134.955 9.11631ZM132.385 9.98031L132.678 10.2055L132.68 10.2019L132.385 9.98031ZM131.455 17.7563L131.218 17.4727L131.205 17.4834L131.194 17.4952L131.455 17.7563ZM131.078 17.9557L131.15 18.3179L131.163 18.3153L131.175 18.3119L131.078 17.9557ZM129.239 17.9335L129.133 18.2873L129.142 18.2899L129.239 17.9335ZM128.685 17.424L128.327 17.5136L128.332 17.534L128.34 17.5536L128.685 17.424ZM128.685 6.87877L128.34 6.74917L128.334 6.76309L128.33 6.77738L128.685 6.87877ZM129.239 6.36923L129.142 6.01295L129.133 6.01562L129.239 6.36923ZM131.078 6.36923L130.972 6.72294L130.992 6.72887L131.012 6.73255L131.078 6.36923ZM131.455 6.54646L131.194 6.8076L131.205 6.81944L131.218 6.83016L131.455 6.54646ZM131.72 8.73969L131.351 8.73974L132.074 8.84556L131.72 8.73969ZM135.764 6.67286C135.825 6.71516 135.893 6.80109 135.893 7.03389H136.631C136.631 6.6464 136.507 6.2892 136.184 6.06565L135.764 6.67286ZM135.893 7.03389C135.893 7.64492 135.829 8.15492 135.708 8.57033L136.417 8.77623C136.562 8.27595 136.631 7.69302 136.631 7.03389H135.893ZM135.712 8.55652C135.663 8.70506 135.617 8.75575 135.605 8.76624L136.077 9.33355C136.242 9.19635 136.344 8.99596 136.413 8.79004L135.712 8.55652ZM135.636 8.74268C135.639 8.74097 135.629 8.74841 135.595 8.75592C135.561 8.7634 135.512 8.76928 135.442 8.76928V9.50774C135.649 9.50774 135.868 9.47543 136.046 9.35711L135.636 8.74268ZM135.442 8.76928C135.322 8.76928 135.17 8.76255 134.983 8.74821L134.927 9.4845C135.124 9.4997 135.297 9.50774 135.442 9.50774V8.76928ZM134.986 8.7484C134.795 8.73252 134.57 8.72497 134.312 8.72497V9.46343C134.557 9.46343 134.76 9.47067 134.924 9.48432L134.986 8.7484ZM134.312 8.72497C133.373 8.72497 132.613 9.06115 132.09 9.75882L132.68 10.2019C133.043 9.71803 133.568 9.46343 134.312 9.46343V8.72497ZM132.092 9.75523C131.581 10.4204 131.351 11.3397 131.351 12.4615H132.09C132.09 11.4271 132.303 10.6924 132.678 10.2055L132.092 9.75523ZM131.351 12.4615V16.9145H132.09V12.4615H131.351ZM131.351 16.9145C131.351 17.3002 131.264 17.4345 131.218 17.4727L131.691 18.0401C132 17.7828 132.09 17.3558 132.09 16.9145H131.351ZM131.194 17.4952C131.163 17.5254 131.102 17.5666 130.981 17.5996L131.175 18.3119C131.379 18.2563 131.569 18.1645 131.716 18.0175L131.194 17.4952ZM131.006 17.5936C130.898 17.6152 130.672 17.6308 130.303 17.6308V18.3692C130.671 18.3692 130.963 18.3553 131.15 18.3179L131.006 17.5936ZM130.303 17.6308H130.015V18.3692H130.303V17.6308ZM130.015 17.6308C129.665 17.6308 129.448 17.6079 129.336 17.5773L129.142 18.2899C129.355 18.3479 129.655 18.3692 130.015 18.3692V17.6308ZM129.345 17.58C129.243 17.5492 129.182 17.5097 129.146 17.4732L128.624 17.9952C128.764 18.1359 128.94 18.2294 129.133 18.2873L129.345 17.58ZM129.146 17.4732C129.095 17.4221 129.057 17.3635 129.031 17.2944L128.34 17.5536C128.402 17.7208 128.498 17.8691 128.624 17.9952L129.146 17.4732ZM129.044 17.3344C129.025 17.2603 129.01 17.1261 129.01 16.9145H128.272C128.272 17.1459 128.287 17.3514 128.327 17.5136L129.044 17.3344ZM129.01 16.9145V7.38836H128.272V16.9145H129.01ZM129.01 7.38836C129.01 7.15544 129.026 7.0303 129.04 6.98025L128.33 6.77738C128.286 6.93411 128.272 7.14866 128.272 7.38836H129.01ZM129.031 7.00846C129.057 6.93931 129.095 6.88083 129.146 6.82975L128.624 6.30758C128.498 6.43373 128.402 6.58202 128.34 6.74917L129.031 7.00846ZM129.146 6.82975C129.182 6.79321 129.243 6.75368 129.345 6.72294L129.133 6.01562C128.94 6.07349 128.764 6.16689 128.624 6.30758L129.146 6.82975ZM129.336 6.7255C129.448 6.69494 129.665 6.67205 130.015 6.67205V5.93359C129.655 5.93359 129.355 5.95489 129.142 6.01295L129.336 6.7255ZM130.015 6.67205H130.303V5.93359H130.015V6.67205ZM130.303 6.67205C130.672 6.67205 130.881 6.6958 130.972 6.72294L131.184 6.01562C130.979 5.95415 130.672 5.93359 130.303 5.93359V6.67205ZM131.012 6.73255C131.124 6.75287 131.173 6.78662 131.194 6.8076L131.716 6.28542C131.559 6.12917 131.357 6.04476 131.144 6.006L131.012 6.73255ZM131.218 6.83016C131.264 6.86832 131.351 7.00265 131.351 7.38836H132.09C132.09 6.94699 132 6.52008 131.691 6.26286L131.218 6.83016ZM131.351 7.38836V8.73974H132.09V7.38836H131.351ZM132.074 8.84556C132.319 8.02795 132.675 7.45134 133.12 7.07906C133.561 6.71082 134.119 6.51697 134.822 6.51697V5.77851C133.974 5.77851 133.24 6.01667 132.647 6.51242C132.058 7.00414 131.639 7.72354 131.367 8.63392L132.074 8.84556ZM134.822 6.51697C135.358 6.51697 135.645 6.59377 135.769 6.6765L136.179 6.06206C135.86 5.8494 135.379 5.77851 134.822 5.77851V6.51697Z" fill="#54595D"/>
</svg>
