<svg width="22" height="22" viewBox="0 0 22 22" fill="none" xmlns="http://www.w3.org/2000/svg">
<path d="M2.66533 16.472C2.54 16.472 2.41333 16.448 2.29066 16.3987C0.89866 15.8347 0 14.5 0 12.9987V3.66667C0 1.64534 1.64533 0 3.66666 0H13C14.5014 0 15.836 0.89867 16.4 2.29067C16.6067 2.80267 16.36 3.38534 15.848 3.59334C15.336 3.80134 14.7533 3.55334 14.5453 3.04134C14.2894 2.408 13.6827 1.99867 13 1.99867H3.66533C2.74666 1.99867 1.99866 2.74667 1.99866 3.66534V12.9987C1.99866 13.6813 2.408 14.288 3.04133 14.544C3.55333 14.752 3.8 15.3347 3.59333 15.8467C3.436 16.236 3.06133 16.4707 2.66533 16.4707V16.472Z" fill="#FAC12E"/>
<path d="M17.6653 4.66669H8.33195C6.30928 4.66669 4.66528 6.31069 4.66528 8.33336V17.6667C4.66528 19.6894 6.30928 21.3334 8.33195 21.3334H17.6653C19.688 21.3334 21.332 19.6894 21.332 17.6667V8.33336C21.332 6.31069 19.688 4.66669 17.6653 4.66669ZM17.1346 10.6027L12.6053 16.6027C12.4346 16.828 12.176 16.9707 11.8933 16.996C11.8653 16.9987 11.836 17 11.8066 17C11.5546 17 11.3106 16.9054 11.1253 16.732L8.97998 14.732C8.57595 14.3547 8.55328 13.7227 8.92928 13.3187C9.30798 12.9147 9.93858 12.892 10.3426 13.268L11.6773 14.512L15.5386 9.39739C15.872 8.95739 16.4986 8.87069 16.94 9.20269C17.3813 9.53599 17.468 10.1627 17.1346 10.604V10.6027Z" fill="#FAC12E"/>
</svg>
