<svg width="22" height="21" viewBox="0 0 22 21" fill="none" xmlns="http://www.w3.org/2000/svg">
<path fill-rule="evenodd" clip-rule="evenodd" d="M8.33334 2C8.14961 2 8 2.14962 8 2.33333V4.66668H13.3333V2.33333C13.3333 2.14959 13.1837 2 13 2H8.33334ZM15.3333 4.66668V2.33333C15.3333 1.04507 14.2883 0 13 0H8.33334C7.04506 0 6 1.04504 6 2.33333V4.66668H3.6667C1.64166 4.66668 3.00407e-05 6.3083 3.00407e-05 8.33335L0 16.9999C0 19.025 1.64162 20.6666 3.66667 20.6666H17.6666C19.6917 20.6666 21.3333 19.025 21.3333 16.9999V8.33335C21.3333 6.30835 19.6919 4.66668 17.6667 4.66668H15.3333ZM19.3333 8.33335C19.3333 7.41283 18.5872 6.66668 17.6667 6.66668H3.6667C2.74622 6.66668 2.00003 7.41287 2.00003 8.33335L2.00002 11.4072C3.6115 12.0215 5.88882 12.6918 8.66673 12.9215V11.6666C8.66673 10.5621 9.56215 9.66664 10.6667 9.66664C11.7711 9.66664 12.6667 10.562 12.6667 11.6666V12.9215C15.4445 12.6918 17.7218 12.0215 19.3333 11.4072V8.33335ZM19.3333 13.5358C17.6199 14.1328 15.3562 14.7225 12.6666 14.9278L12.6666 14.9833C12.6666 14.9834 12.6666 14.9833 12.6666 14.9833C12.6666 16.0879 11.7712 16.9833 10.6666 16.9833C9.56205 16.9833 8.66663 16.0879 8.66663 14.9833L8.66664 14.9278C5.97712 14.7225 3.71337 14.1328 2.00001 13.5358L2 16.9999C2 17.9205 2.7462 18.6666 3.66667 18.6666H17.6666C18.5871 18.6666 19.3333 17.9205 19.3333 16.9999V13.5358Z" fill="white"/>
</svg>
