<svg width="23" height="22" viewBox="0 0 23 22" fill="none" xmlns="http://www.w3.org/2000/svg">
<path fill-rule="evenodd" clip-rule="evenodd" d="M0.833008 10.9999C0.833008 5.10889 5.60864 0.333252 11.4997 0.333252C17.3907 0.333252 22.1664 5.10889 22.1664 10.9999C22.1664 16.891 17.3907 21.6666 11.4997 21.6666C5.60864 21.6666 0.833008 16.891 0.833008 10.9999ZM11.4997 2.33325C6.71321 2.33325 2.83301 6.21346 2.83301 10.9999C2.83301 15.7864 6.71321 19.6666 11.4997 19.6666C16.2862 19.6666 20.1664 15.7864 20.1664 10.9999C20.1664 6.21346 16.2862 2.33325 11.4997 2.33325Z" fill="#FC5E5E"/>
<path fill-rule="evenodd" clip-rule="evenodd" d="M7.1259 6.62615C7.51643 6.23562 8.14959 6.23562 8.54011 6.62615L15.8735 13.9595C16.264 14.35 16.264 14.9832 15.8735 15.3737C15.4829 15.7642 14.8498 15.7642 14.4593 15.3737L7.1259 8.04036C6.73538 7.64983 6.73538 7.01667 7.1259 6.62615Z" fill="#FC5E5E"/>
<path fill-rule="evenodd" clip-rule="evenodd" d="M15.8735 6.62615C16.264 7.01667 16.264 7.64983 15.8735 8.04036L8.54011 15.3737C8.14959 15.7642 7.51643 15.7642 7.1259 15.3737C6.73538 14.9832 6.73538 14.35 7.1259 13.9595L14.4593 6.62615C14.8498 6.23562 15.4829 6.23562 15.8735 6.62615Z" fill="#FC5E5E"/>
</svg>
